#N canvas 827 239 527 327 12;
#X obj 1327 151 inlet;
#X obj 1327 177 tgl 25 0 empty empty empty 17 7 0 10 #000000 #ffffff #ffffff 0 1;
#X obj 559 151 inlet~;
#X obj 647 151 inlet~;
#X obj 735 151 inlet~;
#X obj 823 151 inlet~;
#X obj 911 151 inlet~;
#X obj 999 151 inlet~;
#X obj 1087 151 inlet~;
#X obj 1175 151 inlet~;
#X obj 559 274 *~;
#X obj 647 274 *~;
#X obj 735 274 *~;
#X obj 823 274 *~;
#X obj 911 274 *~;
#X obj 999 274 *~;
#X obj 1087 274 *~;
#X obj 1175 274 *~;
#X obj 559 369 outlet~;
#X obj 647 402 outlet~;
#X obj 735 435 outlet~;
#X obj 823 468 outlet~;
#X obj 911 501 outlet~;
#X obj 999 534 outlet~;
#X obj 1087 567 outlet~;
#X obj 1175 600 outlet~;
#X connect 0 0 1 0;
#X connect 1 0 10 1;
#X connect 1 0 11 1;
#X connect 1 0 12 1;
#X connect 1 0 13 1;
#X connect 1 0 14 1;
#X connect 1 0 15 1;
#X connect 1 0 16 1;
#X connect 1 0 17 1;
#X connect 2 0 10 0;
#X connect 3 0 11 0;
#X connect 4 0 12 0;
#X connect 5 0 13 0;
#X connect 6 0 14 0;
#X connect 7 0 15 0;
#X connect 8 0 16 0;
#X connect 9 0 17 0;
#X connect 10 0 18 0;
#X connect 11 0 19 0;
#X connect 12 0 20 0;
#X connect 13 0 21 0;
#X connect 14 0 22 0;
#X connect 15 0 23 0;
#X connect 16 0 24 0;
#X connect 17 0 25 0;
