#N canvas 827 239 527 327 12;
#X obj 505 223 throw~ chn1;
#X obj 584 288 throw~ chn2;
#X obj 663 333 throw~ chn3;
#X obj 742 386 throw~ chn4;
#X obj 818 436 throw~ chn5;
#X obj 894 477 throw~ chn6;
#X obj 970 523 throw~ chn7;
#X obj 1046 568 throw~ chn8;
#X obj 505 183 inlet~;
#X obj 584 183 inlet~;
#X obj 663 183 inlet~;
#X obj 742 183 inlet~;
#X obj 818 183 inlet~;
#X obj 894 183 inlet~;
#X obj 970 183 inlet~;
#X obj 1046 183 inlet~;
#X connect 8 0 0 0;
#X connect 9 0 1 0;
#X connect 10 0 2 0;
#X connect 11 0 3 0;
#X connect 12 0 4 0;
#X connect 13 0 5 0;
#X connect 14 0 6 0;
#X connect 15 0 7 0;
