#N canvas 827 239 527 327 12;
#X obj 274 89 inlet~;
#X obj 360 89 inlet~;
#X obj 445 89 inlet~;
#X obj 530 89 inlet~;
#X obj 615 89 inlet~;
#X obj 700 89 inlet~;
#X obj 785 89 inlet~;
#X obj 870 89 inlet~;
#X obj 1054 89 inlet;
#X text 1054 46 position (-1 - 1);
#X obj 274 187 pan~ 8 0.6;
#X obj 432 187 pan~ 8 0.6 45;
#X obj 590 187 pan~ 8 0.6 90;
#X obj 745 187 pan~ 8 0.6 135;
#X obj 907 187 pan~ 8 0.6 180;
#X obj 1071 187 pan~ 8 0.6 225;
#X obj 1239 187 pan~ 8 0.6 270;
#X obj 1404 187 pan~ 8 0.6 315;
#X obj 274 388 outlet~;
#X obj 432 388 outlet~;
#X obj 590 388 outlet~;
#X obj 745 388 outlet~;
#X obj 907 388 outlet~;
#X obj 1071 388 outlet~;
#X obj 1239 388 outlet~;
#X obj 1404 388 outlet~;
#X connect 0 0 10 0;
#X connect 1 0 11 0;
#X connect 2 0 12 0;
#X connect 3 0 13 0;
#X connect 4 0 14 0;
#X connect 5 0 15 0;
#X connect 6 0 16 0;
#X connect 7 0 17 0;
#X connect 8 0 10 2;
#X connect 8 0 11 2;
#X connect 8 0 12 2;
#X connect 8 0 13 2;
#X connect 8 0 14 2;
#X connect 8 0 15 2;
#X connect 8 0 16 2;
#X connect 8 0 17 2;
#X connect 10 0 18 0;
#X connect 10 1 19 0;
#X connect 10 2 20 0;
#X connect 10 3 21 0;
#X connect 10 4 22 0;
#X connect 10 5 23 0;
#X connect 10 6 24 0;
#X connect 10 7 25 0;
#X connect 11 0 18 0;
#X connect 11 1 19 0;
#X connect 11 2 20 0;
#X connect 11 3 21 0;
#X connect 11 4 22 0;
#X connect 11 5 23 0;
#X connect 11 6 24 0;
#X connect 11 7 25 0;
#X connect 12 0 18 0;
#X connect 12 1 19 0;
#X connect 12 2 20 0;
#X connect 12 3 21 0;
#X connect 12 4 22 0;
#X connect 12 5 23 0;
#X connect 12 6 24 0;
#X connect 12 7 25 0;
#X connect 13 0 18 0;
#X connect 13 1 19 0;
#X connect 13 2 20 0;
#X connect 13 3 21 0;
#X connect 13 4 22 0;
#X connect 13 5 23 0;
#X connect 13 6 24 0;
#X connect 13 7 25 0;
#X connect 14 0 18 0;
#X connect 14 1 19 0;
#X connect 14 2 20 0;
#X connect 14 3 21 0;
#X connect 14 4 22 0;
#X connect 14 5 23 0;
#X connect 14 6 24 0;
#X connect 14 7 25 0;
#X connect 15 0 18 0;
#X connect 15 1 19 0;
#X connect 15 2 20 0;
#X connect 15 3 21 0;
#X connect 15 4 22 0;
#X connect 15 5 23 0;
#X connect 15 6 24 0;
#X connect 15 7 25 0;
#X connect 16 0 18 0;
#X connect 16 1 19 0;
#X connect 16 2 20 0;
#X connect 16 3 21 0;
#X connect 16 4 22 0;
#X connect 16 5 23 0;
#X connect 16 6 24 0;
#X connect 16 7 25 0;
#X connect 17 0 18 0;
#X connect 17 1 19 0;
#X connect 17 2 20 0;
#X connect 17 3 21 0;
#X connect 17 4 22 0;
#X connect 17 5 23 0;
#X connect 17 6 24 0;
#X connect 17 7 25 0;
