#N canvas 827 239 527 327 12;
#X obj 421 219 osc-rec 6666;
#X obj 421 172 tgl 25 0 empty empty empty 17 7 0 10 #000000 #ffffff #ffffff 0 1;
#X obj 421 618 param param1;
#X obj 421 258 route pan;
#X obj 421 319 route 1;
#X obj 436 351 route 2;
#X obj 471 421 route 4;
#X obj 487 455 route 5;
#X obj 500 490 route 6;
#X obj 519 525 route 7;
#X obj 538 562 route 8;
#X obj 436 652 param param2;
#X obj 451 689 param param3;
#X obj 471 727 param param4;
#X obj 487 764 param param5;
#X obj 500 804 param param6;
#X obj 519 847 param param7;
#X obj 538 892 param param8;
#X obj 421 113 loadbang;
#X obj 421 139 int 1;
#X obj 454 388 route 3;
#X msg 663 610 1;
#X obj 663 544 loadbang;
#X obj 663 572 bng 25 250 50 0 empty empty empty 17 7 0 10 #000000 #ffffff #ffffff;
#X connect 0 0 3 0;
#X connect 1 0 0 0;
#X connect 3 0 4 0;
#X connect 3 0 5 0;
#X connect 3 0 6 0;
#X connect 3 0 7 0;
#X connect 3 0 8 0;
#X connect 3 0 9 0;
#X connect 3 0 10 0;
#X connect 3 0 20 0;
#X connect 4 0 2 0;
#X connect 5 0 11 0;
#X connect 6 0 13 0;
#X connect 7 0 14 0;
#X connect 8 0 15 0;
#X connect 9 0 16 0;
#X connect 10 0 17 0;
#X connect 18 0 19 0;
#X connect 19 0 1 0;
#X connect 20 0 12 0;
#X connect 21 0 2 1;
#X connect 21 0 11 1;
#X connect 21 0 12 1;
#X connect 21 0 13 1;
#X connect 21 0 14 1;
#X connect 21 0 15 1;
#X connect 21 0 16 1;
#X connect 21 0 17 1;
#X connect 22 0 23 0;
#X connect 23 0 21 0;
#X coords 0 0 1 1 200 140 1 0 0;
