#N canvas 0 0 1920 976 12;
#X declare -lib else -path else;
#X declare -lib cyclone -path cyclone;
#X obj 390 233 steering_wheel;
#X obj 621 652 tgl 87 0 master-on empty empty 17 7 0 10 #00ee1d #ffffff #ffffff 0 1;
#X text 621 738 master on/off;
#X obj 1757 660 vsl 17 128 0 127 0 0 empty empty empty 0 -9 0 10 #191919 #ffffff #ffffff 0 1;
#X obj 1757 817 s ctrl-wheel;
#X obj 621 233 cue-sequencer;
#X obj 378 500 throttle-control;
#X msg 390 183 \; pd dsp \$1;
#X obj 390 151 r master-on;
#X obj 1562 817 s ctrl-throttle;
#X obj 1562 660 vsl 17 128 0 127 0 0 empty empty empty 0 -9 0 10 #191919 #ffffff #ffffff 0 1;
#X obj 496 150 declare -lib else -path else;
#X obj 496 183 declare -lib cyclone -path cyclone;
#X obj 408 652 ableton-track-send;
#X connect 3 0 4 0;
#X connect 8 0 7 0;
#X connect 10 0 9 0;
