#N canvas 0 0 1920 976 12;
#X declare -lib else -path else;
#X declare -lib cyclone -path cyclone;
#X obj 390 233 steering_wheel;
#X obj 526 731 tgl 87 0 master-on empty empty 17 7 0 10 #00ee1d #ffffff #ffffff 0 1;
#X text 526 817 master on/off;
#X obj 168 1042 pan2~;
#X obj 217 936 r ctrl-wheel;
#X obj 217 969 expr ((($f1 / 127) * 2) - 1);
#X floatatom 217 995 5 0 0 0 - - - 12;
#X obj 1761 670 vsl 17 128 0 127 0 0 empty empty empty 0 -9 0 10 #191919 #ffffff #ffffff 0 1;
#X obj 1757 817 s ctrl-wheel;
#X obj 168 1077 dac~;
#X text 184 898 wheel controls panning;
#X obj 621 233 cue-sequencer;
#X obj 621 652 mixer;
#X obj 378 500 throttle-control;
#X msg 678 182 \; pd dsp \$1;
#X obj 678 150 r master-on;
#X obj 1562 817 s ctrl-throttle;
#X obj 1562 660 vsl 17 128 0 127 0 0 empty empty empty 0 -9 0 10 #191919 #ffffff #ffffff 0 1;
#X obj 391 164 declare -lib else -path else;
#X obj 390 197 declare -lib cyclone -path cyclone;
#X obj 411 652 ableton-track-send;
#X connect 3 0 9 0;
#X connect 3 1 9 1;
#X connect 4 0 5 0;
#X connect 5 0 6 0;
#X connect 6 0 3 1;
#X connect 7 0 8 0;
#X connect 15 0 14 0;
#X connect 17 0 16 0;
