#N canvas 827 239 527 327 12;
#X obj 560 16 tgl 25 0 empty empty empty 17 7 0 10 #000000 #ffffff #ffffff 0 1;
#X obj 560 -9 r master-on;
#X obj 509 70 osc-send 11000;
#X obj 645 70 osc-rec 11001;
#X obj 509 119 tgl 25 0 empty empty empty 17 7 0 10 #000000 #ffffff #ffffff 0 1;
#X text -22 -115 There should only be one of these in the entire patch;
#X obj 310 -114 r ableton-track-volume;
#X obj 160 42 tgl 25 0 empty empty empty 17 7 0 10 #000000 #ffffff #ffffff 0 1;
#X text 90 47 connected;
#X obj 645 96 print;
#X obj 8 72 messbox 180 60 0 0 0 255 255 255 0 12;
#X text 8 47 ip addr;
#X obj 525 -114 r ableton-control-param;
#X msg 990 140 set live device start_listen parameter value;
#X msg 927 140 7 0 0;
#X obj 927 58 bng 25 250 50 0 empty empty empty 17 7 0 10 #000000 #ffffff #ffffff;
#X obj 927 90 t b b;
#X msg 310 -45 set live track set volume;
#X obj 310 -89 t l b;
#X text 289 -156 i f (id val) as list;
#X obj 525 -89 t l b;
#X msg 525 -45 set live device set parameter value;
#X connect 0 0 2 1;
#X connect 0 0 3 0;
#X connect 1 0 0 0;
#X connect 2 0 4 0;
#X connect 3 0 9 0;
#X connect 4 0 7 0;
#X connect 6 0 18 0;
#X connect 10 0 2 2;
#X connect 12 0 20 0;
#X connect 13 0 2 0;
#X connect 14 0 2 0;
#X connect 15 0 16 0;
#X connect 16 0 14 0;
#X connect 16 1 13 0;
#X connect 17 0 2 0;
#X connect 18 0 2 0;
#X connect 18 1 17 0;
#X connect 20 0 2 0;
#X connect 20 1 21 0;
#X connect 21 0 2 0;
#X coords 0 0 1 1 205 144 1 0 0;
