#N canvas 827 239 527 327 12;
#X obj 635 39 tgl 25 0 empty empty empty 17 7 0 10 #000000 #ffffff #ffffff 0 1;
#X obj 635 14 r master-on;
#X obj 509 86 osc-send 11000;
#X obj 670 86 osc-rec 11001;
#X obj 509 119 tgl 25 0 empty empty empty 17 7 0 10 #000000 #ffffff #ffffff 0 1;
#X obj 285 -25 sel 1;
#X obj 285 1 bng 25 250 50 0 empty empty empty 17 7 0 10 #000000 #ffffff #ffffff;
#X msg 285 35 set live track set volume;
#X text 285 -61 set path on connect;
#X text 509 -115 takes in track id and volume (0-1) as argument;
#X text -22 -115 There should only be one of these in the entire patch;
#X obj 509 -83 r ableton-track-volume;
#X obj 160 42 tgl 25 0 empty empty empty 17 7 0 10 #000000 #ffffff #ffffff 0 1;
#X text 90 47 connected;
#X obj 670 112 print;
#X obj 8 72 messbox 180 60 0 0 0 255 255 255 0 12;
#X text 8 47 ip addr;
#X connect 0 0 2 1;
#X connect 0 0 3 0;
#X connect 1 0 0 0;
#X connect 2 0 4 0;
#X connect 3 0 14 0;
#X connect 4 0 5 0;
#X connect 4 0 12 0;
#X connect 5 0 6 0;
#X connect 6 0 7 0;
#X connect 7 0 2 0;
#X connect 11 0 2 0;
#X connect 15 0 2 2;
#X coords 0 0 1 1 205 144 1 0 0;
