#N canvas 827 239 527 327 12;
#X obj 441 193 inlet;
#X text 441 169 volume (0-1) in;
#X text 441 124 \$1 is index (0-7);
#X obj 345 193 int \$1;
#X obj 345 134 loadbang;
#X floatatom 441 219 5 0 0 0 - - - 12;
#X text 345 368 outputs list where first argument is track id and second is volume;
#X obj 345 332 s ableton-track-volume;
#X msg 477 286 set live track set volume;
#X obj 345 271 pack f f;
#X obj 345 160 bng 25 250 50 0 empty empty empty 17 7 0 10 #000000 #ffffff #ffffff;
#X obj 441 244 t b b;
#X connect 0 0 5 0;
#X connect 3 0 9 0;
#X connect 4 0 10 0;
#X connect 5 0 11 0;
#X connect 5 0 9 1;
#X connect 8 0 7 0;
#X connect 9 0 7 0;
#X connect 10 0 3 0;
#X connect 11 0 9 0;
#X connect 11 1 8 0;
