#N canvas 827 239 527 327 12;
#X obj 560 16 tgl 25 0 empty empty empty 17 7 0 10 #000000 #ffffff #ffffff 0 1;
#X obj 560 -9 r master-on;
#X obj 509 70 osc-send 11000;
#X obj 645 70 osc-rec 11001;
#X obj 509 119 tgl 25 0 empty empty empty 17 7 0 10 #000000 #ffffff #ffffff 0 1;
#X text -194 -30 There should only be one of these in the entire patch;
#X obj 188 -245 r ableton-track-volume;
#X obj 160 42 tgl 25 0 empty empty empty 17 7 0 10 #000000 #ffffff #ffffff 0 1;
#X text 90 45 connected;
#X obj 645 96 print;
#X obj 8 72 messbox 180 60 0 0 0 255 255 255 0 12;
#X text 8 45 ip addr;
#X obj 423 -245 r ableton-control-param;
#X msg 310 -45 set live track set volume;
#X text 188 -277 i f (id val) as list;
#X msg 525 -45 set live device set parameter value;
#N canvas 0 50 450 300 latching-flipflop 0;
#X obj 559 261 i 0;
#X obj 638 261 i 1;
#X obj 559 219 bng 25 250 50 0 empty empty empty 17 7 0 10 #000000 #ffffff #ffffff;
#X obj 638 219 bng 25 250 50 0 empty empty empty 17 7 0 10 #000000 #ffffff #ffffff;
#N canvas 0 50 450 300 flipflop 0;
#X obj 618 246 bng 25 250 50 0 empty empty empty 17 7 0 10 #000000 #ffffff #ffffff;
#X obj 618 293 int 0;
#X obj 721 356 i;
#X obj 618 319 t f b;
#X floatatom 618 452 5 0 0 0 - - - 12;
#X obj 618 392 expr ($f1 == $f2);
#X obj 618 179 inlet;
#X obj 618 514 outlet;
#X connect 0 0 1 0;
#X connect 1 0 3 0;
#X connect 2 0 5 1;
#X connect 3 0 5 0;
#X connect 3 1 2 0;
#X connect 4 0 7 0;
#X connect 5 0 2 1;
#X connect 5 0 4 0;
#X connect 6 0 0 0;
#X restore 559 469 pd flipflop;
#X obj 559 378 expr ($f1 != $f2);
#X obj 685 333 i;
#X obj 559 300 t f b;
#X floatatom 559 522 5 0 0 0 - - - 12;
#X obj 559 425 sel 1;
#X obj 559 139 inlet;
#X obj 638 139 inlet;
#X obj 559 583 outlet;
#X connect 0 0 7 0;
#X connect 1 0 7 0;
#X connect 2 0 0 0;
#X connect 3 0 1 0;
#X connect 4 0 6 1;
#X connect 4 0 8 0;
#X connect 5 0 9 0;
#X connect 6 0 5 1;
#X connect 7 0 5 0;
#X connect 7 1 6 0;
#X connect 8 0 12 0;
#X connect 9 0 4 0;
#X connect 10 0 2 0;
#X connect 11 0 3 0;
#X restore 310 -163 pd latching-flipflop;
#X obj 423 -216 t l b;
#X obj 188 -216 t l b;
#X floatatom 310 -137 5 0 0 0 - - - 12;
#X obj 310 -108 sel 0 1;
#X text 423 -277 i i i f (id id id val) as list;
#X connect 0 0 2 1;
#X connect 0 0 3 0;
#X connect 1 0 0 0;
#X connect 2 0 4 0;
#X connect 3 0 9 0;
#X connect 4 0 7 0;
#X connect 6 0 18 0;
#X connect 10 0 2 2;
#X connect 12 0 17 0;
#X connect 13 0 2 0;
#X connect 15 0 2 0;
#X connect 16 0 19 0;
#X connect 17 0 2 0;
#X connect 17 1 16 1;
#X connect 18 0 2 0;
#X connect 18 1 16 0;
#X connect 19 0 20 0;
#X connect 20 0 13 0;
#X connect 20 1 15 0;
#X coords 0 0 1 1 205 144 1 0 0;
