#N canvas 827 239 527 327 12;
#X text 409 172 \$1 is track id \, \$2 is device id \, \$3 is paramter id;
#X obj 441 396 int \$1;
#X obj 507 396 int \$2;
#X obj 573 396 int \$3;
#X obj 441 242 bng 25 250 50 0 empty empty empty 17 7 0 10 #000000 #ffffff #ffffff;
#X obj 441 208 loadbang;
#X obj 644 414 inlet;
#X floatatom 644 440 5 0 0 0 - - - 12;
#X text 644 384 param value in;
#X obj 441 590 s ableton-control-param;
#X obj 441 503 pak f f f f;
#X connect 1 0 10 0;
#X connect 2 0 10 1;
#X connect 3 0 10 2;
#X connect 4 0 1 0;
#X connect 4 0 2 0;
#X connect 4 0 3 0;
#X connect 5 0 4 0;
#X connect 6 0 7 0;
#X connect 7 0 10 3;
#X connect 10 0 9 0;
