#N canvas 827 239 527 327 12;
#X obj 119 592 s cue-pos;
#X obj 119 559 int 0;
#X obj 119 520 bng 25 250 50 0 empty empty empty 17 7 0 10 #191919 #ffffff #ffffff;
#X obj 261 519 r cue-pos;
#X obj 250 558 int;
#X obj 220 513 bng 25 250 50 0 empty empty empty 17 7 0 10 #191919 #ffffff #ffffff;
#X obj 250 585 + 1;
#X obj 250 614 s cue-pos;
#X floatatom 14 37 4 0 0 0 - cue-pos - 24;
#X obj 405 519 r cue-pos;
#X obj 394 558 int;
#X obj 371 513 bng 25 250 50 0 empty empty empty 17 7 0 10 #191919 #ffffff #ffffff;
#X obj 394 614 s cue-pos;
#X obj 394 582 - 1;
#X text 119 429 init cue;
#X text 220 429 step cue;
#X text 371 429 previous cue;
#X obj 220 470 r step-cue;
#X obj 371 470 r back-cue;
#X obj 119 470 r init-cue;
#X obj 176 36 bng 31 250 50 0 init-cue empty empty 17 7 0 10 #191919 #ffffff #ffffff;
#X obj 87 37 bng 31 250 50 0 back-cue empty empty 17 7 0 10 #191919 #ffffff #ffffff;
#X obj 128 37 bng 31 250 50 0 step-cue empty empty 17 7 0 10 #191919 #ffffff #ffffff;
#X text 14 6 cue pos;
#X text 176 6 init;
#X text 128 6 step;
#X text 87 6 back;
#X obj 14 82 cue 0;
#X obj 283 82 cue 1;
#X obj 556 82 cue 2;
#X obj 828 82 cue 3;
#X obj 1098 82 cue 4;
#X obj 30 470 loadbang;
#X obj 522 470 r ctrl-paddle-l;
#X obj 522 496 sel 1;
#X obj 522 522 bng 25 250 50 0 empty empty empty 17 7 0 10 #000000 #ffffff #ffffff;
#X obj 522 554 s back-cue;
#X obj 710 470 r ctrl-paddle-r;
#X obj 710 496 sel 1;
#X obj 710 522 bng 25 250 50 0 empty empty empty 17 7 0 10 #000000 #ffffff #ffffff;
#X obj 710 554 s step-cue;
#X text 522 429 back paddle;
#X text 710 429 forward paddle;
#X connect 1 0 0 0;
#X connect 2 0 1 0;
#X connect 3 0 4 1;
#X connect 4 0 6 0;
#X connect 5 0 4 0;
#X connect 6 0 7 0;
#X connect 9 0 10 1;
#X connect 10 0 13 0;
#X connect 11 0 10 0;
#X connect 13 0 12 0;
#X connect 17 0 5 0;
#X connect 18 0 11 0;
#X connect 19 0 2 0;
#X connect 32 0 2 0;
#X connect 33 0 34 0;
#X connect 34 0 35 0;
#X connect 35 0 36 0;
#X connect 37 0 38 0;
#X connect 38 0 39 0;
#X connect 39 0 40 0;
#X coords 0 0 1 1 1373 409 1 0 0;
