#N canvas 827 239 1920 976 12;
#X obj 623 48 r master-clock;
#X obj 297 48 inlet;
#X obj 797 74 tgl 25 0 empty empty empty 17 7 0 10 #000000 #ffffff #ffffff 0 1;
#X obj 623 107 spigot;
#X obj 961 48 r master-bpm;
#X text 623 9 only gets clock pulses if it's enabled;
#X obj 623 152 bng 39 250 50 0 empty empty empty 17 7 0 10 #000000 #ffffff #ffffff;
#X obj 297 199 s \$0-enabled;
#X obj 797 48 r \$0-enabled;
#X obj 327 152 s min-bpm;
#X obj 437 152 s max-bpm;
#X obj 327 117 int 40;
#X obj 437 117 int 100;
#X obj 327 74 sel 1;
#X text 7 252 synth pad with 8(?) voices;
#X text 7 281 voices play in a circle \, mapped to each channel;
#X text 7 309 steering wheel rotates channels;
#X obj 797 144 sel 1;
#X obj 797 170 bng 25 250 50 0 empty empty empty 17 7 0 10 #000000 #ffffff #ffffff;
#X obj 426 361 spigot;
#X obj 535 325 r \$0-enabled;
#X floatatom 426 387 5 0 0 0 - - - 12;
#X obj 426 283 r ctrl-wheel;
#X obj 426 463 scaler;
#X obj 516 418 float 0;
#X obj 572 461 float 1;
#X floatatom 426 489 5 0 0 0 - - - 12;
#X obj 426 565 8-chn-pan-vectors;
#X obj 432 533 hsl 128 17 0 1 0 0 empty empty empty -2 -8 0 10 #000000 #ffffff #ffffff 0 1;
#X floatatom 426 309 5 0 0 0 - - - 12;
#X obj 535 351 sel 1;
#X obj 535 377 bng 25 250 50 0 empty empty empty 17 7 0 10 #000000 #ffffff #ffffff;
#X obj 7 89 vsl 17 128 0 1 0 0 empty empty empty 0 -9 0 10 #000000 #ffffff #ffffff 0 1;
#X obj 29 89 vsl 17 128 0 1 0 0 empty empty empty 0 -9 0 10 #000000 #ffffff #ffffff 0 1;
#X obj 52 89 vsl 17 128 0 1 0 0 empty empty empty 0 -9 0 10 #000000 #ffffff #ffffff 0 1;
#X obj 75 89 vsl 17 128 0 1 0 0 empty empty empty 0 -9 0 10 #000000 #ffffff #ffffff 0 1;
#X obj 98 89 vsl 17 128 0 1 0 0 empty empty empty 0 -9 0 10 #000000 #ffffff #ffffff 0 1;
#X obj 121 89 vsl 17 128 0 1 0 0 empty empty empty 0 -9 0 10 #000000 #ffffff #ffffff 0 1;
#X obj 144 89 vsl 17 128 0 1 0 0 empty empty empty 0 -9 0 10 #000000 #ffffff #ffffff 0 1;
#X obj 167 89 vsl 17 128 0 1 0 0 empty empty empty 0 -9 0 10 #000000 #ffffff #ffffff 0 1;
#X text 8 54 panning;
#X msg 603 533 0;
#X floatatom 954 309 5 0 0 0 - - - 12;
#X obj 1082 283 r \$0-enabled;
#X obj 954 395 spigot;
#X obj 954 461 scaler;
#X obj 1082 337 sel 1;
#X obj 1082 363 bng 25 250 50 0 empty empty empty 17 7 0 10 #000000 #ffffff #ffffff;
#X floatatom 954 487 5 0 0 0 - - - 12;
#X obj 426 627 ableton-track-volume 1;
#X obj 444 661 ableton-track-volume 2;
#X obj 463 697 ableton-track-volume 3;
#X obj 482 730 ableton-track-volume 4;
#X obj 501 768 ableton-track-volume 5;
#X obj 519 804 ableton-track-volume 6;
#X obj 538 839 ableton-track-volume 7;
#X obj 557 874 ableton-track-volume 8;
#X obj 954 283 r ctrl-brake;
#X obj 954 650 ableton-effect-param 22 0 1;
#X obj 1082 395 f 127;
#X obj 1134 395 f 0;
#X connect 0 0 3 0;
#X connect 1 0 7 0;
#X connect 1 0 13 0;
#X connect 2 0 3 1;
#X connect 2 0 17 0;
#X connect 3 0 6 0;
#X connect 8 0 2 0;
#X connect 11 0 9 0;
#X connect 12 0 10 0;
#X connect 13 0 11 0;
#X connect 13 0 12 0;
#X connect 17 0 18 0;
#X connect 18 0 41 0;
#X connect 19 0 21 0;
#X connect 20 0 19 1;
#X connect 20 0 30 0;
#X connect 21 0 23 0;
#X connect 22 0 29 0;
#X connect 23 0 26 0;
#X connect 24 0 23 1;
#X connect 25 0 23 2;
#X connect 26 0 28 0;
#X connect 27 0 32 0;
#X connect 27 0 49 0;
#X connect 27 1 33 0;
#X connect 27 1 50 0;
#X connect 27 2 34 0;
#X connect 27 2 51 0;
#X connect 27 3 35 0;
#X connect 27 3 52 0;
#X connect 27 4 36 0;
#X connect 27 4 53 0;
#X connect 27 5 37 0;
#X connect 27 5 54 0;
#X connect 27 6 38 0;
#X connect 27 6 55 0;
#X connect 27 7 39 0;
#X connect 27 7 56 0;
#X connect 28 0 27 0;
#X connect 29 0 19 0;
#X connect 30 0 31 0;
#X connect 31 0 24 0;
#X connect 31 0 25 0;
#X connect 41 0 27 1;
#X connect 42 0 44 0;
#X connect 43 0 44 1;
#X connect 43 0 46 0;
#X connect 44 0 45 0;
#X connect 45 0 48 0;
#X connect 46 0 47 0;
#X connect 47 0 59 0;
#X connect 47 0 60 0;
#X connect 48 0 58 0;
#X connect 57 0 42 0;
#X connect 59 0 45 1;
#X connect 60 0 45 2;
#X coords 0 0 1 1 246 226 2 0 0;
