#N canvas -25 -27 1920 976 12;
#X obj 623 48 r master-clock;
#X obj 297 48 inlet;
#X obj 797 74 tgl 25 0 empty empty empty 17 7 0 10 #000000 #ffffff #ffffff 0 1;
#X obj 623 107 spigot;
#X obj 961 48 r master-bpm;
#X text 623 14 only gets clock pulses if it's enabled;
#X obj 13 201 hsl 128 17 0 500 0 1 \$0-lowpass empty lowpass -2 -8 0 10 #000000 #ffffff #ffffff 2261 1;
#X obj 31 54 vsl 17 128 0 100 0 1 \$0-length empty length 0 -9 0 10 #000000 #ffffff #ffffff 12037 1;
#X obj 55 133 knob 50 0 1 0 0.6 \$0-mix empty #000000 #FFFFFF #FFFFFF 1 0 0 0 1 270 0 0 0;
#X obj 6 54 vsl 17 128 0 120 0 1 \$0-db-lev empty db 0 -9 0 10 #000000 #ffffff #ffffff 10734 1;
#X text 55 106 mix;
#X text 6 2 Reverb;
#N canvas 0 0 450 250 (subpatch) 0;
#X array kicksample 254299 float 2;
#X coords 0 1 254299 -1 200 140 1;
#X restore 22 267 graph;
#X obj 61 511 soundfiler;
#X obj 61 446 loadbang;
#X obj 22 440 bng 25 250 50 0 empty empty empty 17 7 0 10 #000000 #ffffff #ffffff;
#X obj 1073 207 tabplay~ kicksample;
#X obj 1074 374 rev2~ 100;
#X obj 1140 317 int 4000;
#X obj 1162 345 int 67;
#X obj 1547 327 r \$0-mix;
#X obj 1096 264 r \$0-db-lev;
#X obj 1118 289 r \$0-length;
#X text 1096 172 kick + reverb;
#X obj 623 152 bng 39 250 50 0 empty empty empty 17 7 0 10 #000000 #ffffff #ffffff;
#X obj 1366 989 8-chn-send;
#X obj 297 199 s \$0-enabled;
#X obj 797 48 r \$0-enabled;
#X obj 327 152 s min-bpm;
#X obj 437 152 s max-bpm;
#X obj 327 117 int 40;
#X obj 327 74 sel 1;
#X obj 61 623 r ctrl-throttle;
#X obj 61 701 spigot;
#X obj 119 667 r \$0-enabled;
#X text 61 591 throttle controls length + mix;
#X obj 61 894 s \$0-length;
#X floatatom 61 727 5 0 0 0 - - - 12;
#X floatatom 61 823 5 0 0 0 - - - 12;
#X obj 61 797 scaler 1;
#X obj 153 707 sel 1;
#X obj 1366 663 *~;
#X obj 1499 627 r \$0-vol;
#X obj 1402 698 *~;
#X obj 1438 730 *~;
#X obj 1474 762 *~;
#X obj 1150 233 *~ 1.5;
#X msg 61 477 read -resize ./samples/MSXKICK_043.wav kicksample;
#X obj 1318 354 expr~ ((1 - $f2) * $v1);
#X obj 1296 443 r \$0-lowpass;
#X obj 1248 443 +~;
#X obj 220 743 int 20;
#X obj 324 743 int 90;
#X obj 61 865 expr (115 - $f1);
#X obj 1163 1132 s \$0-group-1;
#X obj 1182 1176 s \$0-group-2;
#X obj 1202 1218 s \$0-group-3;
#X obj 1222 1254 s \$0-group-4;
#X obj 108 19 hsl 128 17 0 1 0 0 \$0-vol empty volume -2 -8 0 10 #000000 #ffffff #ffffff 0 1;
#X obj 1163 865 env~;
#X obj 1182 894 env~;
#X obj 1202 924 env~;
#X obj 1222 959 env~;
#X obj 1163 989 - 100;
#X obj 1182 1022 - 100;
#X obj 1202 1054 - 100;
#X obj 1222 1084 - 100;
#X obj 658 602 line;
#X obj 658 657 vsl 17 128 0 1 0 0 empty empty empty 0 -9 0 10 #000000 #ffffff #ffffff 0 1;
#X msg 726 559 0;
#X obj 658 306 bng 25 250 50 0 empty empty empty 17 7 0 10 #000000 #ffffff #ffffff;
#X obj 658 359 t b b b;
#X floatatom 765 379 5 0 0 0 - - - 12;
#X obj 658 447 float;
#X msg 658 509 0 \, 1 \$1;
#X floatatom 658 475 5 0 0 0 - - - 12;
#X obj 765 306 float;
#X obj 765 339 expr ($f1 / 60), f 23;
#X obj 765 422 expr ((1 / $f1) * 1000);
#X obj 1248 493 lop~;
#X obj 1074 434 *~;
#X obj 1097 406 r \$0-mix;
#X obj 128 88 vu 19 80 \$0-group-1 empty -1 -8 0 10 #000000 #ffffff 0 0;
#X obj 156 88 vu 19 80 \$0-group-2 empty -1 -8 0 10 #000000 #ffffff 0 0;
#X obj 184 88 vu 19 80 \$0-group-3 empty -1 -8 0 10 #000000 #ffffff 0 0;
#X obj 213 88 vu 19 80 \$0-group-4 empty -1 -8 0 10 #000000 #ffffff 0 0;
#X obj 437 117 int 160;
#X obj 1366 894 8-chn-muter;
#X obj 1588 788 r \$0-enabled;
#X obj 1163 672 pan~ 4 0.5;
#X connect 0 0 3 0;
#X connect 1 0 26 0;
#X connect 1 0 31 0;
#X connect 2 0 3 1;
#X connect 3 0 24 0;
#X connect 4 0 76 0;
#X connect 14 0 47 0;
#X connect 15 0 47 0;
#X connect 16 0 17 0;
#X connect 16 0 46 0;
#X connect 17 0 80 0;
#X connect 18 0 17 3;
#X connect 19 0 17 4;
#X connect 20 0 48 1;
#X connect 21 0 17 1;
#X connect 22 0 17 2;
#X connect 24 0 16 0;
#X connect 24 0 70 0;
#X connect 27 0 2 0;
#X connect 30 0 28 0;
#X connect 31 0 30 0;
#X connect 31 0 86 0;
#X connect 32 0 33 0;
#X connect 33 0 37 0;
#X connect 34 0 33 1;
#X connect 34 0 40 0;
#X connect 37 0 39 0;
#X connect 38 0 53 0;
#X connect 39 0 38 0;
#X connect 40 0 51 0;
#X connect 40 0 52 0;
#X connect 41 0 87 0;
#X connect 41 0 87 1;
#X connect 42 0 41 1;
#X connect 42 0 43 1;
#X connect 42 0 44 1;
#X connect 42 0 45 1;
#X connect 43 0 87 2;
#X connect 43 0 87 3;
#X connect 44 0 87 4;
#X connect 44 0 87 5;
#X connect 45 0 87 6;
#X connect 45 0 87 7;
#X connect 46 0 48 0;
#X connect 47 0 13 0;
#X connect 48 0 50 1;
#X connect 49 0 79 1;
#X connect 50 0 79 0;
#X connect 51 0 39 1;
#X connect 52 0 39 2;
#X connect 53 0 36 0;
#X connect 59 0 63 0;
#X connect 60 0 64 0;
#X connect 61 0 65 0;
#X connect 62 0 66 0;
#X connect 63 0 54 0;
#X connect 64 0 55 0;
#X connect 65 0 56 0;
#X connect 66 0 57 0;
#X connect 67 0 68 0;
#X connect 68 0 89 2;
#X connect 69 0 67 0;
#X connect 70 0 71 0;
#X connect 71 0 73 0;
#X connect 71 2 69 0;
#X connect 72 0 78 0;
#X connect 73 0 75 0;
#X connect 74 0 67 0;
#X connect 75 0 74 0;
#X connect 76 0 77 0;
#X connect 77 0 72 0;
#X connect 78 0 73 1;
#X connect 79 0 89 0;
#X connect 80 0 50 0;
#X connect 81 0 80 1;
#X connect 86 0 29 0;
#X connect 87 0 25 0;
#X connect 87 1 25 1;
#X connect 87 2 25 2;
#X connect 87 3 25 3;
#X connect 87 4 25 4;
#X connect 87 5 25 5;
#X connect 87 6 25 6;
#X connect 87 7 25 7;
#X connect 88 0 87 8;
#X connect 89 0 59 0;
#X connect 89 0 41 0;
#X connect 89 1 60 0;
#X connect 89 1 43 0;
#X connect 89 2 61 0;
#X connect 89 2 44 0;
#X connect 89 3 62 0;
#X connect 89 3 45 0;
#X coords 0 0 1 1 246 226 2 0 0;
