#N canvas 827 239 244 222 12;
#X obj 351 44 r master-clock;
#X obj 525 44 inlet;
#X obj 525 70 tgl 25 0 empty empty empty 17 7 0 10 #000000 #ffffff #ffffff 0 1;
#X obj 351 103 spigot;
#X obj 634 44 r master-bpm;
#X text 351 13 only gets clock pulses if it's enabled;
#X obj 10 196 hsl 128 17 0 500 0 1 \$0-lowpass empty lowpass -2 -8 0 10 #000000 #ffffff #ffffff 12700 1;
#X obj 31 48 vsl 17 128 0 100 0 1 \$0-length empty length 0 -9 0 10 #000000 #ffffff #ffffff 8118 1;
#X obj 55 123 knob 50 0 1 0 0.6 \$0-mix empty #000000 #FFFFFF #FFFFFF 1 0 0 0 1 270 0 0 0;
#X obj 212 83 vsl 17 128 0 1 0 1 \$0-vol empty out 0 -9 0 10 #000000 #ffffff #ffffff 9841 1;
#X obj 6 48 vsl 17 128 0 120 0 1 \$0-db-lev empty db 0 -9 0 10 #000000 #ffffff #ffffff 12700 1;
#X text 55 94 mix;
#X text 6 5 Reverb;
#X obj 453 603 lop~;
#N canvas 0 0 450 250 (subpatch) 0;
#X array kicksample 35811 float 2;
#X coords 0 1 35811 -1 200 140 1;
#X restore 30 630 graph;
#X obj 69 874 soundfiler;
#X obj 69 809 loadbang;
#X obj 30 803 bng 25 250 50 0 empty empty empty 17 7 0 10 #000000 #ffffff #ffffff;
#X obj 265 345 tabplay~ kicksample;
#X obj 563 710 throw~ master-in;
#X obj 266 512 rev2~ 100;
#X obj 266 581 *~;
#X obj 466 386 expr~ ((1 - $f2) * $v1);
#X msg 69 840 read -resize ./samples/MSXKICK_007.wav kicksample;
#X obj 563 672 *~;
#X obj 332 455 int 4000;
#X obj 354 483 int 67;
#X obj 505 288 r \$0-mix;
#X obj 288 402 r \$0-db-lev;
#X obj 310 427 r \$0-length;
#X obj 586 633 r \$0-vol;
#X obj 491 560 r \$0-lowpass;
#X text 288 313 kick + reverb;
#X obj 799 523 vsl 18 128 0 1 0 0 empty empty empty 0 -9 0 10 #000000 #ffffff #ffffff 0 1;
#X obj 920 560 vsl 18 128 0 1 0 0 empty empty empty 0 -9 0 10 #000000 #ffffff #ffffff 0 1;
#X obj 1041 598 vsl 18 128 0 1 0 0 empty empty empty 0 -9 0 10 #000000 #ffffff #ffffff 0 1;
#X obj 799 115 float;
#X floatatom 1041 164 5 0 0 0 - - - 12;
#X obj 799 148 expr ($f1 / 60), f 23;
#X msg 964 335 0.25;
#X msg 1218 335 0.75;
#X obj 799 483 spigot;
#X obj 920 521 spigot;
#X obj 1041 558 spigot;
#X obj 799 372 phasor~;
#X obj 799 402 sig2float~;
#X obj 858 455 expr ($f1 < 1);
#X msg 856 335 0;
#X obj 937 372 phasor~;
#X obj 937 402 sig2float~;
#X obj 1068 372 phasor~;
#X obj 1068 402 sig2float~;
#X obj 1191 372 phasor~;
#X obj 1191 402 sig2float~;
#X msg 1105 335 0.5;
#X obj 1099 527 expr ($f1 < 1);
#X obj 1191 635 vsl 18 128 0 1 0 0 empty empty empty 0 -9 0 10 #000000 #ffffff #ffffff 0 1;
#X obj 1191 595 spigot;
#X obj 1249 564 expr ($f1 < 1);
#X floatatom 995 427 5 0 0 0 - - - 12;
#X obj 978 493 expr ($f1 < .89);
#X obj 1567 380 line;
#X obj 1567 472 vsl 18 128 0 1 0 0 empty empty empty 0 -9 0 10 #000000 #ffffff #ffffff 0 1;
#X msg 1693 273 0;
#X obj 1567 210 float;
#X msg 1567 273 1 1000;
#X obj 1660 235 delay 10;
#X obj 1835 333 line~;
#X connect 0 0 3 0;
#X connect 1 0 2 0;
#X connect 2 0 3 1;
#X connect 4 0 36 0;
#X connect 13 0 24 0;
#X connect 16 0 23 0;
#X connect 17 0 23 0;
#X connect 18 0 20 0;
#X connect 18 0 22 0;
#X connect 20 0 21 0;
#X connect 21 0 13 0;
#X connect 22 0 13 0;
#X connect 23 0 15 0;
#X connect 24 0 19 0;
#X connect 25 0 20 3;
#X connect 26 0 20 4;
#X connect 27 0 21 1;
#X connect 27 0 22 1;
#X connect 28 0 20 1;
#X connect 29 0 20 2;
#X connect 30 0 24 1;
#X connect 31 0 13 1;
#X connect 36 0 38 0;
#X connect 38 0 37 0;
#X connect 38 0 44 0;
#X connect 38 0 48 0;
#X connect 38 0 50 0;
#X connect 38 0 52 0;
#X connect 38 0 64 1;
#X connect 39 0 48 1;
#X connect 40 0 52 1;
#X connect 41 0 33 0;
#X connect 42 0 34 0;
#X connect 43 0 35 0;
#X connect 44 0 45 0;
#X connect 45 0 41 0;
#X connect 45 0 46 0;
#X connect 46 0 41 1;
#X connect 47 0 44 1;
#X connect 48 0 49 0;
#X connect 49 0 42 0;
#X connect 49 0 59 0;
#X connect 49 0 60 0;
#X connect 50 0 51 0;
#X connect 51 0 55 0;
#X connect 51 0 43 0;
#X connect 52 0 53 0;
#X connect 53 0 58 0;
#X connect 53 0 57 0;
#X connect 54 0 50 1;
#X connect 55 0 43 1;
#X connect 57 0 56 0;
#X connect 58 0 57 1;
#X connect 60 0 42 1;
#X connect 61 0 62 0;
#X connect 63 0 61 0;
#X connect 64 0 65 0;
#X connect 64 0 66 0;
#X connect 65 0 61 0;
#X connect 66 0 61 1;
#X coords 0 0 1 1 246 226 2 0 0;
