#N canvas 827 239 1920 976 12;
#X obj 623 48 r master-clock;
#X obj 297 48 inlet;
#X obj 797 74 tgl 25 0 empty empty empty 17 7 0 10 #000000 #ffffff #ffffff 0 1;
#X obj 623 107 spigot;
#X obj 961 48 r master-bpm;
#X text 623 7 only gets clock pulses if it's enabled;
#X obj 623 152 bng 39 250 50 0 empty empty empty 17 7 0 10 #000000 #ffffff #ffffff;
#X obj 297 199 s \$0-enabled;
#X obj 797 48 r \$0-enabled;
#X obj 327 152 s min-bpm;
#X obj 437 152 s max-bpm;
#X obj 327 117 int 40;
#X obj 437 117 int 100;
#X obj 327 74 sel 1;
#X text 7 250 synth pad with 8(?) voices;
#X text 7 279 voices play in a circle \, mapped to each channel;
#X text 7 307 steering wheel rotates channels;
#X obj 421 671 spigot;
#X obj 490 622 r \$0-enabled;
#X floatatom 421 697 5 0 0 0 - - - 12;
#X obj 421 593 r ctrl-wheel;
#X obj 421 804 scaler;
#X obj 442 740 float 0;
#X obj 458 776 float 1;
#X floatatom 421 830 5 0 0 0 - - - 12;
#X obj 421 915 8-chn-pan-vectors;
#X obj 427 874 hsl 128 17 0 1 0 0 empty empty empty -2 -8 0 10 #000000 #ffffff #ffffff 0 1;
#X floatatom 421 619 5 0 0 0 - - - 12;
#X obj 490 648 sel 1;
#X obj 490 674 bng 25 250 50 0 empty empty empty 17 7 0 10 #000000 #ffffff #ffffff;
#X obj 7 93 vsl 17 128 0 1 0 0 empty \$0-chn-1 empty 0 -9 0 10 #000000 #ffffff #ffffff 0 1;
#X obj 29 93 vsl 17 128 0 1 0 0 empty \$0-chn-2 empty 0 -9 0 10 #000000 #ffffff #ffffff 0 1;
#X obj 52 93 vsl 17 128 0 1 0 0 empty \$0-chn-3 empty 0 -9 0 10 #000000 #ffffff #ffffff 0 1;
#X obj 75 93 vsl 17 128 0 1 0 0 empty \$0-chn-4 empty 0 -9 0 10 #000000 #ffffff #ffffff 0 1;
#X obj 98 93 vsl 17 128 0 1 0 0 empty \$0-chn-5 empty 0 -9 0 10 #000000 #ffffff #ffffff 0 1;
#X obj 121 93 vsl 17 128 0 1 0 0 empty \$0-chn-6 empty 0 -9 0 10 #000000 #ffffff #ffffff 0 1;
#X obj 144 93 vsl 17 128 0 1 0 0 empty \$0-chn-7 empty 0 -9 0 10 #000000 #ffffff #ffffff 0 1;
#X obj 167 93 vsl 17 128 0 1 0 0 empty \$0-chn-8 empty 0 -9 0 10 #000000 #ffffff #ffffff 0 1;
#X text 8 52 panning;
#X msg 598 874 0;
#X floatatom 692 619 5 0 0 0 - - - 12;
#X obj 820 593 r \$0-enabled;
#X obj 692 705 spigot;
#X obj 692 771 scaler;
#X obj 820 647 sel 1;
#X obj 820 673 bng 25 250 50 0 empty empty empty 17 7 0 10 #000000 #ffffff #ffffff;
#X floatatom 692 797 5 0 0 0 - - - 12;
#X obj 34 678 ableton-track-volume 1;
#X obj 52 712 ableton-track-volume 2;
#X obj 71 748 ableton-track-volume 3;
#X obj 90 781 ableton-track-volume 4;
#X obj 109 819 ableton-track-volume 5;
#X obj 127 855 ableton-track-volume 6;
#X obj 146 890 ableton-track-volume 7;
#X obj 165 925 ableton-track-volume 8;
#X obj 692 593 r ctrl-brake;
#X obj 692 843 ableton-effect-param 22 0 1;
#X obj 820 705 f 127;
#X obj 872 705 f 0;
#X obj 421 989 s \$0-chn-1;
#X obj 439 1016 s \$0-chn-2;
#X obj 458 1045 s \$0-chn-3;
#X obj 477 1074 s \$0-chn-4;
#X obj 496 1103 s \$0-chn-5;
#X obj 515 1132 s \$0-chn-6;
#X obj 534 1161 s \$0-chn-7;
#X obj 553 1190 s \$0-chn-8;
#X obj 34 390 r \$0-chn-1;
#X obj 52 417 r \$0-chn-2;
#X obj 71 446 r \$0-chn-3;
#X obj 90 475 r \$0-chn-4;
#X obj 109 504 r \$0-chn-5;
#X obj 128 533 r \$0-chn-6;
#X obj 147 562 r \$0-chn-7;
#X obj 166 591 r \$0-chn-8;
#X text 425 539 360 panning;
#X text 692 551 brake controls bitcrush sr;
#X obj 797 106 sel 0;
#X obj 762 200 s \$0-chn-1;
#X obj 780 227 s \$0-chn-2;
#X obj 799 256 s \$0-chn-3;
#X obj 818 285 s \$0-chn-4;
#X obj 837 314 s \$0-chn-5;
#X obj 856 343 s \$0-chn-6;
#X obj 875 372 s \$0-chn-7;
#X obj 894 401 s \$0-chn-8;
#X obj 944 152 i 0;
#X text 986 151 set all volumes to 0 when changing to next cue;
#X connect 0 0 3 0;
#X connect 1 0 7 0;
#X connect 1 0 13 0;
#X connect 2 0 3 1;
#X connect 2 0 77 0;
#X connect 3 0 6 0;
#X connect 8 0 2 0;
#X connect 11 0 9 0;
#X connect 12 0 10 0;
#X connect 13 0 11 0;
#X connect 13 0 12 0;
#X connect 17 0 19 0;
#X connect 18 0 17 1;
#X connect 18 0 28 0;
#X connect 19 0 21 0;
#X connect 20 0 27 0;
#X connect 21 0 24 0;
#X connect 22 0 21 1;
#X connect 23 0 21 2;
#X connect 24 0 26 0;
#X connect 25 0 59 0;
#X connect 25 1 60 0;
#X connect 25 2 61 0;
#X connect 25 3 62 0;
#X connect 25 4 63 0;
#X connect 25 5 64 0;
#X connect 25 6 65 0;
#X connect 25 7 66 0;
#X connect 26 0 25 0;
#X connect 27 0 17 0;
#X connect 28 0 29 0;
#X connect 29 0 22 0;
#X connect 29 0 23 0;
#X connect 29 0 39 0;
#X connect 39 0 25 1;
#X connect 40 0 42 0;
#X connect 41 0 42 1;
#X connect 41 0 44 0;
#X connect 42 0 43 0;
#X connect 43 0 46 0;
#X connect 44 0 45 0;
#X connect 45 0 57 0;
#X connect 45 0 58 0;
#X connect 46 0 56 0;
#X connect 55 0 40 0;
#X connect 57 0 43 1;
#X connect 58 0 43 2;
#X connect 67 0 47 0;
#X connect 68 0 48 0;
#X connect 69 0 49 0;
#X connect 70 0 50 0;
#X connect 71 0 51 0;
#X connect 72 0 52 0;
#X connect 73 0 53 0;
#X connect 74 0 54 0;
#X connect 77 0 86 0;
#X connect 86 0 78 0;
#X connect 86 0 79 0;
#X connect 86 0 80 0;
#X connect 86 0 81 0;
#X connect 86 0 82 0;
#X connect 86 0 83 0;
#X connect 86 0 84 0;
#X connect 86 0 85 0;
#X coords 0 0 1 1 246 226 2 0 0;
