#N canvas 827 239 244 222 12;
#X obj 623 48 r master-clock;
#X obj 297 48 inlet;
#X obj 797 74 tgl 25 0 empty empty empty 17 7 0 10 #000000 #ffffff #ffffff 0 1;
#X obj 623 107 spigot;
#X obj 961 48 r master-bpm;
#X text 623 14 only gets clock pulses if it's enabled;
#X obj 623 152 bng 39 250 50 0 empty empty empty 17 7 0 10 #000000 #ffffff #ffffff;
#X obj 297 199 s \$0-enabled;
#X obj 797 48 r \$0-enabled;
#X obj 327 152 s min-bpm;
#X obj 437 152 s max-bpm;
#X obj 327 117 int 40;
#X obj 437 117 int 100;
#X obj 327 74 sel 1;
#X connect 0 0 3 0;
#X connect 1 0 7 0;
#X connect 1 0 13 0;
#X connect 2 0 3 1;
#X connect 3 0 6 0;
#X connect 8 0 2 0;
#X connect 11 0 9 0;
#X connect 12 0 10 0;
#X connect 13 0 11 0;
#X connect 13 0 12 0;
#X coords 0 0 1 1 246 226 2 0 0;
