#N canvas 827 239 1920 976 12;
#X obj 623 48 r master-clock;
#X obj 297 48 inlet;
#X obj 797 74 tgl 25 0 empty empty empty 17 7 0 10 #000000 #ffffff #ffffff 0 1;
#X obj 623 107 spigot;
#X obj 961 48 r master-bpm;
#X text 623 10 only gets clock pulses if it's enabled;
#X obj 623 152 bng 39 250 50 0 empty empty empty 17 7 0 10 #000000 #ffffff #ffffff;
#X obj 297 199 s \$0-enabled;
#X obj 797 48 r \$0-enabled;
#X obj 327 152 s min-bpm;
#X obj 437 152 s max-bpm;
#X obj 327 117 int 40;
#X obj 437 117 int 100;
#X obj 327 74 sel 1;
#X text 7 253 synth pad with 8(?) voices;
#X text 7 282 voices play in a circle \, mapped to each channel;
#X text 7 310 steering wheel rotates channels;
#X obj 797 144 sel 1;
#X obj 797 170 bng 25 250 50 0 empty empty empty 17 7 0 10 #000000 #ffffff #ffffff;
#X obj 426 361 spigot;
#X obj 535 325 r \$0-enabled;
#X floatatom 426 387 5 0 0 0 - - - 12;
#X obj 426 283 r ctrl-wheel;
#X obj 426 463 scaler;
#X obj 516 418 float 0;
#X obj 572 461 float 1;
#X floatatom 426 489 5 0 0 0 - - - 12;
#X obj 426 565 8-chn-pan-vectors;
#X obj 429 533 hsl 128 17 0 1 0 0 empty empty empty -2 -8 0 10 #000000 #ffffff #ffffff 0 1;
#X obj 426 627 ableton-track-volume 8;
#X obj 444 661 ableton-track-volume 9;
#X obj 463 697 ableton-track-volume 10;
#X obj 482 730 ableton-track-volume 11;
#X obj 501 768 ableton-track-volume 12;
#X obj 519 804 ableton-track-volume 13;
#X obj 538 839 ableton-track-volume 14;
#X obj 557 874 ableton-track-volume 15;
#X floatatom 426 309 5 0 0 0 - - - 12;
#X obj 535 351 sel 1;
#X obj 535 377 bng 25 250 50 0 empty empty empty 17 7 0 10 #000000 #ffffff #ffffff;
#X msg 603 533 1;
#X obj 7 87 vsl 17 128 0 1 0 0 empty empty empty 0 -9 0 10 #000000 #ffffff #ffffff 0 1;
#X obj 29 87 vsl 17 128 0 1 0 0 empty empty empty 0 -9 0 10 #000000 #ffffff #ffffff 0 1;
#X obj 52 87 vsl 17 128 0 1 0 0 empty empty empty 0 -9 0 10 #000000 #ffffff #ffffff 0 1;
#X obj 75 87 vsl 17 128 0 1 0 0 empty empty empty 0 -9 0 10 #000000 #ffffff #ffffff 0 1;
#X obj 98 87 vsl 17 128 0 1 0 0 empty empty empty 0 -9 0 10 #000000 #ffffff #ffffff 0 1;
#X obj 121 87 vsl 17 128 0 1 0 0 empty empty empty 0 -9 0 10 #000000 #ffffff #ffffff 0 1;
#X obj 144 87 vsl 17 128 0 1 0 0 empty empty empty 0 -9 0 10 #000000 #ffffff #ffffff 0 1;
#X obj 167 87 vsl 17 128 0 1 0 0 empty empty empty 0 -9 0 10 #000000 #ffffff #ffffff 0 1;
#X text 8 55 panning;
#X connect 0 0 3 0;
#X connect 1 0 7 0;
#X connect 1 0 13 0;
#X connect 2 0 3 1;
#X connect 2 0 17 0;
#X connect 3 0 6 0;
#X connect 8 0 2 0;
#X connect 11 0 9 0;
#X connect 12 0 10 0;
#X connect 13 0 11 0;
#X connect 13 0 12 0;
#X connect 17 0 18 0;
#X connect 18 0 40 0;
#X connect 19 0 21 0;
#X connect 20 0 19 1;
#X connect 20 0 38 0;
#X connect 21 0 23 0;
#X connect 22 0 37 0;
#X connect 23 0 26 0;
#X connect 24 0 23 1;
#X connect 25 0 23 2;
#X connect 26 0 28 0;
#X connect 27 0 29 0;
#X connect 27 0 41 0;
#X connect 27 1 30 0;
#X connect 27 1 42 0;
#X connect 27 2 31 0;
#X connect 27 2 43 0;
#X connect 27 3 32 0;
#X connect 27 3 44 0;
#X connect 27 4 33 0;
#X connect 27 4 45 0;
#X connect 27 5 34 0;
#X connect 27 5 46 0;
#X connect 27 6 35 0;
#X connect 27 6 47 0;
#X connect 27 7 36 0;
#X connect 27 7 48 0;
#X connect 28 0 27 0;
#X connect 37 0 19 0;
#X connect 38 0 39 0;
#X connect 39 0 24 0;
#X connect 39 0 25 0;
#X connect 40 0 27 1;
#X coords 0 0 1 1 246 226 2 0 0;
