#N canvas 827 239 244 222 12;
#X obj 623 48 r master-clock;
#X obj 297 48 inlet;
#X obj 797 74 tgl 25 0 empty empty empty 17 7 0 10 #000000 #ffffff #ffffff 0 1;
#X obj 623 107 spigot;
#X obj 961 48 r master-bpm;
#X text 623 14 only gets clock pulses if it's enabled;
#X obj 13 201 hsl 128 17 0 500 0 1 \$0-lowpass empty lowpass -2 -8 0 10 #000000 #ffffff #ffffff 1706 1;
#X obj 31 54 vsl 17 128 0 100 0 1 \$0-length empty length 0 -9 0 10 #000000 #ffffff #ffffff 12037 1;
#X obj 55 133 knob 50 0 1 0 0.6 \$0-mix empty #000000 #FFFFFF #FFFFFF 1 0 0 0 1 270 0 0 0;
#X obj 6 54 vsl 17 128 0 120 0 1 \$0-db-lev empty db 0 -9 0 10 #000000 #ffffff #ffffff 10734 1;
#X text 55 106 mix;
#X text 6 2 Reverb;
#X obj 868 410 lop~;
#N canvas 0 0 450 250 (subpatch) 0;
#X array kicksample 254299 float 2;
#X coords 0 1 254299 -1 200 140 1;
#X restore 22 267 graph;
#X obj 61 511 soundfiler;
#X obj 61 446 loadbang;
#X obj 22 440 bng 25 250 50 0 empty empty empty 17 7 0 10 #000000 #ffffff #ffffff;
#X obj 623 299 tabplay~ kicksample;
#X obj 624 466 rev2~ 100;
#X obj 624 664 *~;
#X obj 690 409 int 4000;
#X obj 712 437 int 67;
#X obj 863 242 r \$0-mix;
#X obj 646 356 r \$0-db-lev;
#X obj 668 381 r \$0-length;
#X obj 906 370 r \$0-lowpass;
#X text 646 264 kick + reverb;
#X obj 623 152 bng 39 250 50 0 empty empty empty 17 7 0 10 #000000 #ffffff #ffffff;
#N canvas 0 50 450 300 diffuser 0;
#X obj 451 132 inlet;
#X text 451 95 trigger;
#X obj 670 132 inlet;
#X text 670 95 bpm;
#X obj 160 449 vsl 17 128 0 1 0 0 empty empty empty 0 -9 0 10 #000000 #ffffff #ffffff 0 1;
#X obj 418 460 vsl 17 128 0 1 0 0 empty empty empty 0 -9 0 10 #000000 #ffffff #ffffff 0 1;
#X obj 693 460 vsl 17 128 0 1 0 0 empty empty empty 0 -9 0 10 #000000 #ffffff #ffffff 0 1;
#X obj 977 460 vsl 17 128 0 1 0 0 empty empty empty 0 -9 0 10 #000000 #ffffff #ffffff 0 1;
#X obj 693 409 oneshot-triangle 0.75 100;
#X obj 977 409 oneshot-triangle 0.75 150;
#X obj 418 409 oneshot-triangle 0.75 50;
#X obj 670 173 float;
#X obj 670 206 expr ($f1 / 60), f 23;
#X obj 160 672 outlet;
#X obj 418 672 outlet;
#X obj 693 672 outlet;
#X obj 977 672 outlet;
#X obj 160 409 oneshot-triangle -0.25 0;
#X obj 284 151 bng 25 250 50 0 empty empty empty 17 7 0 10 #000000 #ffffff #ffffff;
#X connect 0 0 10 0;
#X connect 0 0 8 0;
#X connect 0 0 9 0;
#X connect 0 0 17 0;
#X connect 2 0 11 0;
#X connect 4 0 13 0;
#X connect 5 0 14 0;
#X connect 6 0 15 0;
#X connect 7 0 16 0;
#X connect 8 0 6 0;
#X connect 9 0 7 0;
#X connect 10 0 5 0;
#X connect 11 0 12 0;
#X connect 12 0 10 1;
#X connect 12 0 8 1;
#X connect 12 0 9 1;
#X connect 12 0 17 1;
#X connect 17 0 4 0;
#X connect 18 0 17 0;
#X connect 18 0 10 0;
#X connect 18 0 8 0;
#X connect 18 0 9 0;
#X restore 1150 222 pd diffuser;
#X obj 1127 501 *~;
#X obj 1163 555 *~;
#X obj 1199 612 *~;
#X obj 1235 667 *~;
#X obj 1127 834 8-chn-send;
#X obj 297 199 s \$0-enabled;
#X obj 797 48 r \$0-enabled;
#X obj 327 152 s min-bpm;
#X obj 437 152 s max-bpm;
#X obj 327 117 int 40;
#X obj 437 117 int 100;
#X obj 327 74 sel 1;
#X obj 61 623 r ctrl-throttle;
#X obj 61 701 spigot;
#X obj 119 667 r \$0-enabled;
#X text 61 591 throttle controls length + mix;
#X obj 61 950 s \$0-mix;
#X obj 170 950 s \$0-length;
#X floatatom 61 727 5 0 0 0 - - - 12;
#X floatatom 61 823 5 0 0 0 - - - 12;
#X obj 61 797 scaler 1;
#X obj 153 707 sel 1;
#X obj 1127 697 *~;
#X obj 1389 711 r \$0-vol;
#X obj 1163 732 *~;
#X obj 1199 764 *~;
#X obj 1235 796 *~;
#X obj 700 325 *~ 1.5;
#X msg 61 477 read -resize ./samples/MSXKICK_043.wav kicksample;
#X obj 653 701 *~;
#X obj 683 734 *~;
#X obj 712 764 *~;
#X obj 868 446 expr~ ((1 - $f2) * $v1);
#X obj 624 545 lop~;
#X obj 718 510 r \$0-lowpass;
#X obj 653 581 lop~;
#X obj 683 618 lop~;
#X obj 712 655 lop~;
#X obj 845 581 +~;
#X obj 889 618 +~;
#X obj 935 648 +~;
#X obj 983 674 +~;
#X obj 220 743 int 20;
#X obj 324 743 int 90;
#X obj 61 895 / 10;
#X obj 170 921 expr (115 - $f1);
#X obj 1344 299 s \$0-group-1;
#X obj 1344 351 s \$0-group-2;
#X obj 1344 403 s \$0-group-3;
#X obj 1344 455 s \$0-group-4;
#X obj 108 19 hsl 128 17 0 1 0 0 \$0-vol empty volume -2 -8 0 10 #000000 #ffffff #ffffff 0 1;
#X obj 125 58 vsl 17 128 0 1 0 0 empty \$0-group-1 empty 0 -9 0 10 #000000 #ffffff #ffffff 0 1;
#X obj 156 58 vsl 17 128 0 1 0 0 empty \$0-group-1 empty 0 -9 0 10 #000000 #ffffff #ffffff 0 1;
#X obj 187 58 vsl 17 128 0 1 0 0 empty \$0-group-3 empty 0 -9 0 10 #000000 #ffffff #ffffff 0 1;
#X obj 218 58 vsl 17 128 0 1 0 0 empty \$0-group-4 empty 0 -9 0 10 #000000 #ffffff #ffffff 0 1;
#X connect 0 0 3 0;
#X connect 1 0 34 0;
#X connect 1 0 40 0;
#X connect 2 0 3 1;
#X connect 3 0 27 0;
#X connect 4 0 28 1;
#X connect 12 0 61 0;
#X connect 15 0 57 0;
#X connect 16 0 57 0;
#X connect 17 0 18 0;
#X connect 17 0 56 0;
#X connect 18 0 62 0;
#X connect 18 1 64 0;
#X connect 18 2 65 0;
#X connect 18 3 66 0;
#X connect 19 0 67 0;
#X connect 20 0 18 3;
#X connect 21 0 18 4;
#X connect 22 0 19 1;
#X connect 22 0 58 1;
#X connect 22 0 59 1;
#X connect 22 0 60 1;
#X connect 22 0 61 1;
#X connect 23 0 18 1;
#X connect 24 0 18 2;
#X connect 25 0 12 1;
#X connect 27 0 28 0;
#X connect 27 0 17 0;
#X connect 28 0 29 1;
#X connect 28 0 75 0;
#X connect 28 1 30 1;
#X connect 28 1 76 0;
#X connect 28 2 31 1;
#X connect 28 2 77 0;
#X connect 28 3 32 1;
#X connect 28 3 78 0;
#X connect 29 0 51 0;
#X connect 30 0 53 0;
#X connect 31 0 54 0;
#X connect 32 0 55 0;
#X connect 35 0 2 0;
#X connect 38 0 36 0;
#X connect 39 0 37 0;
#X connect 40 0 38 0;
#X connect 40 0 39 0;
#X connect 41 0 42 0;
#X connect 42 0 47 0;
#X connect 43 0 42 1;
#X connect 43 0 50 0;
#X connect 47 0 49 0;
#X connect 48 0 73 0;
#X connect 48 0 74 0;
#X connect 49 0 48 0;
#X connect 50 0 71 0;
#X connect 50 0 72 0;
#X connect 51 0 33 0;
#X connect 51 0 33 1;
#X connect 52 0 51 1;
#X connect 52 0 53 1;
#X connect 52 0 54 1;
#X connect 52 0 55 1;
#X connect 53 0 33 2;
#X connect 53 0 33 3;
#X connect 54 0 33 4;
#X connect 54 0 33 5;
#X connect 55 0 33 6;
#X connect 55 0 33 7;
#X connect 56 0 12 0;
#X connect 57 0 14 0;
#X connect 58 0 68 0;
#X connect 59 0 69 0;
#X connect 60 0 70 0;
#X connect 61 0 67 1;
#X connect 61 0 68 1;
#X connect 61 0 69 1;
#X connect 61 0 70 1;
#X connect 62 0 19 0;
#X connect 63 0 62 1;
#X connect 63 0 64 1;
#X connect 63 0 65 1;
#X connect 63 0 66 1;
#X connect 64 0 58 0;
#X connect 65 0 59 0;
#X connect 66 0 60 0;
#X connect 67 0 29 0;
#X connect 68 0 30 0;
#X connect 69 0 31 0;
#X connect 70 0 32 0;
#X connect 71 0 49 1;
#X connect 72 0 49 2;
#X connect 74 0 46 0;
#X coords 0 0 1 1 246 226 2 0 0;
