#N canvas 827 239 1920 976 12;
#X obj 623 48 r master-clock;
#X obj 297 48 inlet;
#X obj 797 74 tgl 25 0 empty empty empty 17 7 0 10 #000000 #ffffff #ffffff 0 1;
#X obj 623 107 spigot;
#X obj 961 48 r master-bpm;
#X text 623 11 only gets clock pulses if it's enabled;
#X obj 623 152 bng 39 250 50 0 empty empty empty 17 7 0 10 #000000 #ffffff #ffffff;
#X obj 297 199 s \$0-enabled;
#X obj 797 48 r \$0-enabled;
#X obj 327 152 s min-bpm;
#X obj 437 152 s max-bpm;
#X obj 327 117 int 40;
#X obj 437 117 int 100;
#X obj 327 74 sel 1;
#X text 7 254 synth pad with 8(?) voices;
#X text 7 283 voices play in a circle \, mapped to each channel;
#X text 7 311 steering wheel rotates channels;
#X msg 847 346 67;
#X msg 612 348 58;
#X text 656 344 Bb2;
#X msg 730 348 62;
#X text 774 344 D3;
#X text 891 342 G3;
#X msg 973 348 72;
#X text 1017 344 C4;
#X msg 1096 349 77;
#X text 1140 345 F4;
#X msg 1217 347 81;
#X text 1261 343 A4;
#X msg 1340 345 91;
#X text 1384 341 G5;
#X msg 1459 345 99;
#X text 1503 341 Eb6;
#X text 545 359 Gm13;
#X obj 612 444 osc~;
#X obj 1459 378 midi2freq;
#X obj 612 379 midi2freq;
#X obj 730 378 midi2freq;
#X obj 847 378 midi2freq;
#X obj 973 378 midi2freq;
#X obj 1096 378 midi2freq;
#X obj 1217 378 midi2freq;
#X obj 1340 378 midi2freq;
#X obj 730 444 osc~;
#X obj 847 444 osc~;
#X obj 973 444 osc~;
#X obj 1096 444 osc~;
#X obj 1217 444 osc~;
#X obj 1340 444 osc~;
#X obj 1459 444 osc~;
#X obj 797 144 sel 1;
#X obj 797 170 bng 25 250 50 0 empty empty empty 17 7 0 10 #000000 #ffffff #ffffff;
#X obj 612 691 8-chn-send;
#X obj 612 631 8-chn-muter;
#X obj 788 631 r \$0-enabled;
#X obj 1663 598 spigot;
#X obj 1721 564 r \$0-enabled;
#X floatatom 1663 624 5 0 0 0 - - - 12;
#X obj 1663 520 r ctrl-wheel;
#X obj 1663 700 scaler;
#X obj 1692 649 float 0;
#X obj 1721 673 float 1;
#X floatatom 1663 726 5 0 0 0 - - - 12;
#X connect 0 0 3 0;
#X connect 1 0 7 0;
#X connect 1 0 13 0;
#X connect 2 0 3 1;
#X connect 2 0 50 0;
#X connect 3 0 6 0;
#X connect 8 0 2 0;
#X connect 11 0 9 0;
#X connect 12 0 10 0;
#X connect 13 0 11 0;
#X connect 13 0 12 0;
#X connect 17 0 38 0;
#X connect 18 0 36 0;
#X connect 20 0 37 0;
#X connect 23 0 39 0;
#X connect 25 0 40 0;
#X connect 27 0 41 0;
#X connect 29 0 42 0;
#X connect 31 0 35 0;
#X connect 35 0 49 0;
#X connect 36 0 34 0;
#X connect 37 0 43 0;
#X connect 38 0 44 0;
#X connect 39 0 45 0;
#X connect 40 0 46 0;
#X connect 41 0 47 0;
#X connect 42 0 48 0;
#X connect 50 0 51 0;
#X connect 51 0 18 0;
#X connect 51 0 20 0;
#X connect 51 0 17 0;
#X connect 51 0 23 0;
#X connect 51 0 25 0;
#X connect 51 0 27 0;
#X connect 51 0 29 0;
#X connect 51 0 31 0;
#X connect 51 0 38 1;
#X connect 53 0 52 0;
#X connect 53 1 52 1;
#X connect 53 2 52 2;
#X connect 53 3 52 3;
#X connect 53 4 52 4;
#X connect 53 5 52 5;
#X connect 53 6 52 6;
#X connect 53 7 52 7;
#X connect 54 0 53 8;
#X connect 55 0 57 0;
#X connect 56 0 55 1;
#X connect 57 0 59 0;
#X connect 58 0 55 0;
#X connect 59 0 62 0;
#X connect 60 0 59 1;
#X connect 61 0 59 2;
#X coords 0 0 1 1 246 226 2 0 0;
