#N canvas 827 239 527 327 12;
#X obj 389 46 r cue-pos;
#X obj 389 85 expr ($f1 == $f2);
#X obj 475 46 r \$0-cue-num;
#X obj 645 123 s \$0-cue-num;
#X obj 10 40 tgl 25 0 empty \$0-cue-enable empty 17 7 0 10 #191919 #ffffff #ffffff 0 1;
#X obj 389 111 s \$0-cue-enable;
#X obj 645 15 loadbang;
#X floatatom 645 72 5 0 0 0 - - - 12;
#X obj 645 46 int \$1;
#N canvas 0 50 450 300 \$0-cue-impl 0;
#X obj 254 42 r master-clock;
#X obj 470 245 dac~;
#X obj 470 188 lop~;
#X obj 591 96 bng 25 250 50 0 empty empty empty 17 7 0 10 #000000 #ffffff #ffffff;
#X obj 591 142 int 100;
#X connect 2 0 1 0;
#X connect 3 0 4 0;
#X connect 4 0 2 1;
#X coords 0 0 1 1 168 220 2 0 0;
#X restore 10 85 pd \$0-cue-impl;
#X connect 0 0 1 0;
#X connect 1 0 5 0;
#X connect 2 0 1 1;
#X connect 6 0 8 0;
#X connect 7 0 3 0;
#X connect 8 0 7 0;
#X coords 0 0 1 1 185 315 1 0 0;
