#N canvas 827 239 1920 976 12;
#X obj 663 37 vsl 17 128 0 1 0 0 empty empty empty 0 -9 0 10 #000000 #ffffff #ffffff 0 1;
#X obj 11 42 vu 20 120 empty empty -1 -8 0 10 #000000 #ffffff 1 0;
#X obj 701 48 vu 20 120 empty empty -1 -8 0 10 #000000 #ffffff 1 0;
#X obj 10 -64 env~;
#X obj 25 760 env~;
#X obj 10 -32 - 100;
#X obj 700 4 - 100;
#X obj 25 416 catch~ chn1;
#X obj 160 416 catch~ chn2;
#X obj 297 416 catch~ chn3;
#X obj 435 416 catch~ chn4;
#X obj 570 416 catch~ chn5;
#X obj 705 416 catch~ chn6;
#X obj 845 416 catch~ chn7;
#X obj 985 416 catch~ chn8;
#X text 9 7 1;
#X obj 90 44 vu 20 120 empty empty -1 -8 0 10 #000000 #ffffff 1 0;
#X obj 88 -64 env~;
#X obj 88 -32 - 100;
#X obj 168 44 vu 20 120 empty empty -1 -8 0 10 #000000 #ffffff 1 0;
#X obj 166 -64 env~;
#X obj 166 -32 - 100;
#X obj 246 44 vu 20 120 empty empty -1 -8 0 10 #000000 #ffffff 1 0;
#X obj 244 -64 env~;
#X obj 244 -32 - 100;
#X obj 324 44 vu 20 120 empty empty -1 -8 0 10 #000000 #ffffff 1 0;
#X obj 322 -64 env~;
#X obj 322 -32 - 100;
#X obj 404 46 vu 20 120 empty empty -1 -8 0 10 #000000 #ffffff 1 0;
#X obj 401 -64 env~;
#X obj 401 -32 - 100;
#X obj 483 46 vu 20 120 empty empty -1 -8 0 10 #000000 #ffffff 1 0;
#X obj 480 -64 env~;
#X obj 480 -32 - 100;
#X obj 562 46 vu 20 120 empty empty -1 -8 0 10 #000000 #ffffff 1 0;
#X obj 559 -64 env~;
#X obj 559 -32 - 100;
#X obj 25 501 *~;
#X obj 48 468 r out-lev;
#X obj 160 501 *~;
#X obj 183 468 r out-lev;
#X obj 297 501 *~;
#X obj 320 468 r out-lev;
#X obj 434 501 *~;
#X obj 457 468 r out-lev;
#X obj 571 501 *~;
#X obj 594 468 r out-lev;
#X obj 708 501 *~;
#X obj 731 468 r out-lev;
#X obj 845 501 *~;
#X obj 868 468 r out-lev;
#X obj 982 501 *~;
#X obj 1005 468 r out-lev;
#X obj 663 194 s out-lev;
#X obj 25 799 s out-rms;
#X obj 700 -38 r out-rms;
#X text 87 7 2;
#X text 165 7 3;
#X text 243 7 4;
#X text 321 7 5;
#X text 400 7 6;
#X text 479 7 7;
#X text 558 7 8;
#X text 663 3 out;
#X obj 967 4 adc~;
#X obj 834 50 vu 20 120 empty empty -1 -8 0 10 #000000 #ffffff 1 0;
#X obj 834 4 - 100;
#X obj 798 39 vsl 17 128 0 1 0 0 empty empty empty 0 -9 0 10 #000000 #ffffff #ffffff 0 1;
#X text 798 3 in;
#X obj 798 194 s in-lev;
#X obj 1046 68 env~;
#X obj 1046 94 s in-rms;
#X obj 834 -38 r in-rms;
#X obj 967 135 throw~ in;
#X obj 370 724 dac~ 1 2 3 4 5 6 7 8;
#X connect 0 0 53 0;
#X connect 3 0 5 0;
#X connect 4 0 54 0;
#X connect 5 0 1 0;
#X connect 6 0 2 0;
#X connect 7 0 3 0;
#X connect 7 0 37 0;
#X connect 8 0 17 0;
#X connect 8 0 39 0;
#X connect 9 0 20 0;
#X connect 9 0 41 0;
#X connect 10 0 23 0;
#X connect 10 0 43 0;
#X connect 11 0 26 0;
#X connect 11 0 45 0;
#X connect 12 0 29 0;
#X connect 12 0 47 0;
#X connect 13 0 32 0;
#X connect 13 0 49 0;
#X connect 14 0 35 0;
#X connect 14 0 51 0;
#X connect 17 0 18 0;
#X connect 18 0 16 0;
#X connect 20 0 21 0;
#X connect 21 0 19 0;
#X connect 23 0 24 0;
#X connect 24 0 22 0;
#X connect 26 0 27 0;
#X connect 27 0 25 0;
#X connect 29 0 30 0;
#X connect 30 0 28 0;
#X connect 32 0 33 0;
#X connect 33 0 31 0;
#X connect 35 0 36 0;
#X connect 36 0 34 0;
#X connect 37 0 4 0;
#X connect 37 0 74 0;
#X connect 38 0 37 1;
#X connect 39 0 4 0;
#X connect 39 0 74 1;
#X connect 40 0 39 1;
#X connect 41 0 4 0;
#X connect 41 0 74 2;
#X connect 42 0 41 1;
#X connect 43 0 4 0;
#X connect 43 0 74 3;
#X connect 44 0 43 1;
#X connect 45 0 4 0;
#X connect 45 0 74 4;
#X connect 46 0 45 1;
#X connect 47 0 4 0;
#X connect 47 0 74 5;
#X connect 48 0 47 1;
#X connect 49 0 4 0;
#X connect 49 0 74 6;
#X connect 50 0 49 1;
#X connect 51 0 4 0;
#X connect 51 0 74 7;
#X connect 52 0 51 1;
#X connect 55 0 6 0;
#X connect 64 0 70 0;
#X connect 64 0 73 0;
#X connect 66 0 65 0;
#X connect 67 0 69 0;
#X connect 70 0 71 0;
#X connect 72 0 66 0;
#X coords 0 0 1 1 897 186 1 0 -1;
