#N canvas 827 239 527 327 12;
#X obj -189 7 catch~ master-in;
#X obj 122 122 vsl 17 128 0 1 0 0 empty empty empty 0 -9 0 10 #000000 #ffffff #ffffff 0 1;
#X obj 16 133 vu 20 120 empty empty -1 -8 0 10 #000000 #ffffff 1 0;
#X obj 156 135 vu 20 120 empty empty -1 -8 0 10 #000000 #ffffff 1 0;
#X text 16 103 in;
#X obj -189 87 env~;
#X obj 78 290 *~ \$1;
#X obj 78 362 env~;
#X obj 164 362 dac~;
#X connect 0 0 5 0;
#X connect 0 0 6 0;
#X connect 1 0 6 1;
#X connect 5 0 2 0;
#X connect 6 0 7 0;
#X connect 6 0 8 0;
#X connect 6 0 8 1;
#X connect 7 0 3 0;
#X coords 0 0 1 1 284 260 1 0 0;
