#N canvas 827 239 527 327 12;
#X obj 422 193 inlet;
#X text 422 165 trigger;
#X obj 599 193 inlet;
#X text 599 165 frequency;
#X obj 541 585 tri~;
#X obj 422 570 line;
#X obj 346 674 vsl 17 128 0 1 0 0 empty empty empty 0 -9 0 10 #000000 #ffffff #ffffff 0 1;
#X msg 490 527 0;
#X obj 422 696 expr ($f1 < 1);
#X obj 578 764 *~;
#X obj 578 790 sig2float~;
#X floatatom 578 816 5 0 0 0 - - - 12;
#X floatatom 554 465 5 0 0 0 - - - 12;
#X obj 578 893 vsl 17 128 0 1 0 0 empty empty empty 0 -9 0 10 #000000 #ffffff #ffffff 0 1;
#X obj 609 696 +~ 1;
#X obj 609 722 /~ 2;
#X obj 422 228 bng 25 250 50 0 empty empty empty 17 7 0 10 #000000 #ffffff #ffffff;
#X obj 422 327 t b b b;
#X floatatom 599 228 5 0 0 0 - - - 12;
#X obj 422 415 float;
#X msg 422 477 0 \, 1 \$1;
#X floatatom 422 443 5 0 0 0 - - - 12;
#X obj 599 390 expr ((1 / $f1) * 1000);
#X obj 402 1095 outlet;
#X text 448 46 outputs a ramp from 0 to 1 to 0 within the frequency specified.;
#X obj 625 510 \$1;
#X floatatom 721 512 5 0 0 0 - - - 12;
#X text 448 89 \$1 is phase \, \$2 is delay;
#X obj 422 281 delay \$2;
#X connect 0 0 16 0;
#X connect 2 0 18 0;
#X connect 4 0 14 0;
#X connect 5 0 6 0;
#X connect 5 0 8 0;
#X connect 7 0 5 0;
#X connect 8 0 9 1;
#X connect 9 0 10 0;
#X connect 10 0 11 0;
#X connect 11 0 13 0;
#X connect 11 0 23 0;
#X connect 12 0 4 0;
#X connect 14 0 15 0;
#X connect 15 0 9 0;
#X connect 16 0 28 0;
#X connect 17 0 19 0;
#X connect 17 1 25 0;
#X connect 17 1 26 0;
#X connect 17 2 7 0;
#X connect 18 0 12 0;
#X connect 18 0 22 0;
#X connect 19 0 21 0;
#X connect 20 0 5 0;
#X connect 21 0 20 0;
#X connect 22 0 19 1;
#X connect 25 0 4 1;
#X connect 28 0 17 0;
