#N canvas 827 239 527 327 12;
#X obj 258 299 list trim;
#X obj 258 400 netsend -u -b;
#X msg 460 473 disconnect;
#X obj 258 174 inlet;
#X text 258 136 list in;
#X obj 435 174 inlet;
#X obj 435 238 sel 1 0;
#X obj 435 200 tgl 25 0 empty empty empty 17 7 0 10 #000000 #ffffff #ffffff 0 1;
#X text 435 136 1 for connect 0 for disconnect;
#X text 258 54 \$1 is port;
#X obj 258 432 tgl 18 0 empty empty empty 17 7 0 10 #000000 #ffffff #ffffff 0 1;
#X obj 258 220 oscformat;
#X obj 258 464 outlet;
#X obj 516 371 pak s s i;
#X msg 516 293 connect;
#X obj 582 345 int \$1;
#X obj 549 320 symbol;
#X obj 648 174 inlet;
#X text 648 136 ip addr;
#X obj 516 400 list trim;
#X connect 0 0 1 0;
#X connect 1 0 10 0;
#X connect 2 0 1 0;
#X connect 3 0 11 0;
#X connect 5 0 7 0;
#X connect 6 0 14 0;
#X connect 6 0 15 0;
#X connect 6 0 16 0;
#X connect 6 1 2 0;
#X connect 7 0 6 0;
#X connect 10 0 12 0;
#X connect 11 0 0 0;
#X connect 13 0 19 0;
#X connect 14 0 13 0;
#X connect 15 0 13 2;
#X connect 16 0 13 1;
#X connect 17 0 16 1;
#X connect 19 0 1 0;
#X coords 0 0 1 1 106 19 0;
