#N canvas 827 239 527 327 12;
#X obj 258 299 list trim;
#X obj 258 400 netsend -u -b;
#X msg 435 353 disconnect;
#X obj 258 174 inlet;
#X text 258 137 list in;
#X obj 435 174 inlet;
#X msg 435 323 connect localhost \$1;
#X obj 435 238 sel 1 0;
#X obj 435 200 tgl 25 0 empty empty empty 17 7 0 10 #000000 #ffffff #ffffff 0 1;
#X text 435 137 1 for connect 0 for disconnect;
#X text 258 55 \$1 is port;
#X obj 435 290 int \$1;
#X obj 258 432 tgl 18 0 empty empty empty 17 7 0 10 #000000 #ffffff #ffffff 0 1;
#X obj 258 220 oscformat;
#X obj 258 464 outlet;
#X connect 0 0 1 0;
#X connect 1 0 12 0;
#X connect 2 0 1 0;
#X connect 3 0 13 0;
#X connect 5 0 8 0;
#X connect 6 0 1 0;
#X connect 7 0 11 0;
#X connect 7 1 2 0;
#X connect 8 0 7 0;
#X connect 11 0 6 0;
#X connect 12 0 14 0;
#X connect 13 0 0 0;
#X coords 0 0 1 1 106 19 0;
