#N canvas 827 239 527 327 12;
#X obj 521 252 netreceive -b -u;
#X obj 521 278 oscparse;
#X obj 521 304 list trim;
#X obj 521 367 outlet;
#X text 409 156 \$1 is port;
#X obj 521 75 inlet;
#X obj 521 101 tgl 25 0 empty empty empty 17 7 0 10 #000000 #ffffff #ffffff 0 1;
#X obj 521 133 sel 1 0;
#X msg 620 208 listen -1;
#X msg 521 208 listen \$1;
#X obj 521 183 int \$1;
#X connect 0 0 1 0;
#X connect 1 0 2 0;
#X connect 2 0 3 0;
#X connect 5 0 6 0;
#X connect 6 0 7 0;
#X connect 7 0 10 0;
#X connect 7 1 8 0;
#X connect 8 0 0 0;
#X connect 9 0 0 0;
#X connect 10 0 9 0;
