#N canvas 827 239 527 327 12;
#X floatatom 529 366 5 0 0 0 - - - 12;
#X obj 447 207 bng 25 250 50 0 empty empty empty 17 7 0 10 #191919 #ffffff #ffffff;
#X obj 484 234 int;
#X obj 545 234 int;
#X floatatom 484 260 5 0 0 0 - - - 12;
#X floatatom 553 299 5 0 0 0 - - - 12;
#X obj 553 267 pipe 50;
#X obj 484 331 expr ($f1 > $f2);
#X obj 424 455 line;
#X floatatom 424 481 5 0 0 0 - - - 12;
#X msg 424 416 set \$1;
#X msg 612 441 \$1 1000;
#X floatatom 649 363 5 0 0 0 - - - 12;
#X obj 649 331 pipe 100;
#X obj 424 372 int;
#X obj 529 391 sel 1;
#X obj 529 417 bng 25 250 50 0 empty empty empty 17 7 0 10 #191919 #ffffff #ffffff;
#X obj 485 76 inlet;
#X obj 541 566 outlet;
#X connect 0 0 15 0;
#X connect 1 0 2 0;
#X connect 1 0 3 0;
#X connect 1 0 6 0;
#X connect 1 0 13 0;
#X connect 2 0 4 0;
#X connect 3 0 6 0;
#X connect 4 0 7 0;
#X connect 4 0 14 1;
#X connect 5 0 7 1;
#X connect 5 0 13 0;
#X connect 6 0 5 0;
#X connect 7 0 0 0;
#X connect 8 0 9 0;
#X connect 9 0 18 0;
#X connect 10 0 8 0;
#X connect 11 0 8 0;
#X connect 12 0 11 0;
#X connect 13 0 12 0;
#X connect 14 0 10 0;
#X connect 15 0 16 0;
#X connect 16 0 14 0;
#X connect 17 0 1 0;
#X connect 17 0 2 1;
#X connect 17 0 3 1;
