#N canvas 827 239 527 327 12;
#X obj 377 151 inlet;
#X obj 476 151 inlet;
#X text 377 114 min;
#X text 476 114 max;
#X obj 377 210 int;
#X obj 476 202 int;
#X obj 439 267 -;
#X obj 219 318 expr ((($f1 / 127) * $f3) + $f2);
#X obj 219 151 inlet;
#X text 219 114 num in;
#X obj 219 391 outlet;
#X connect 0 0 4 0;
#X connect 1 0 5 0;
#X connect 4 0 6 1;
#X connect 4 0 7 1;
#X connect 5 0 6 0;
#X connect 6 0 7 2;
#X connect 7 0 10 0;
#X connect 8 0 7 0;
