#N canvas 5 190 1052 573 12;
#X obj 496 77 hidio;
#X obj 11 190 tgl 25 0 empty master-on empty 17 7 0 10 #191919 #ffffff #ffffff 0 1;
#X text 11 157 on/off;
#X msg 11 307 open \$1;
#X obj 56 190 bng 25 250 50 0 empty empty empty 17 7 0 10 #191919 #ffffff #ffffff;
#X text 56 157 list;
#X obj 56 521 s \$0-hid;
#X obj 105 316 t b b;
#X msg 105 359 refresh;
#X msg 172 359 devices;
#X obj 496 35 r \$0-hid;
#X floatatom 11 235 5 0 0 0 - - - 12;
#X obj 196 100 vsl 17 128 0 127 0 0 empty empty empty 0 -9 0 10 #191919 #ffffff #ffffff 0 1;
#X obj 168 100 vsl 17 128 0 127 0 0 empty empty empty 0 -9 0 10 #191919 #ffffff #ffffff 0 1;
#X obj 174 70 hsl 40 17 0 127 0 0 empty empty empty -2 -8 0 10 #191919 #ffffff #ffffff 0 1;
#X obj 126 70 tgl 25 0 empty empty empty 17 7 0 10 #191919 #ffffff #ffffff 0 1;
#X obj 96 70 tgl 25 0 empty empty empty 17 7 0 10 #191919 #ffffff #ffffff 0 1;
#X text 168 42 wheel;
#X text 196 235 trl;
#X text 168 235 brk;
#X text 97 42 paddles;
#X obj 126 127 tgl 25 0 empty empty empty 17 7 0 10 #191919 #ffffff #ffffff 0 1;
#X obj 126 160 tgl 25 0 empty empty empty 17 7 0 10 #191919 #ffffff #ffffff 0 1;
#X obj 126 192 tgl 25 0 empty empty empty 17 7 0 10 #191919 #ffffff #ffffff 0 1;
#X obj 126 226 tgl 25 0 empty empty empty 17 7 0 10 #191919 #ffffff #ffffff 0 1;
#X obj 96 127 tgl 25 0 empty empty empty 17 7 0 10 #191919 #ffffff #ffffff 0 1;
#X obj 96 160 tgl 25 0 empty empty empty 17 7 0 10 #191919 #ffffff #ffffff 0 1;
#X obj 96 192 tgl 25 0 empty empty empty 17 7 0 10 #191919 #ffffff #ffffff 0 1;
#X obj 96 226 tgl 25 0 empty empty empty 17 7 0 10 #191919 #ffffff #ffffff 0 1;
#X text 96 100 face btns;
#X text 447 280 wheel;
#X obj 344 143 route x;
#X obj 344 175 route 0;
#X floatatom 459 307 2 0 0 0 - - - 16;
#X obj 344 212 expr (($f1 / 4096) * 127);
#X obj 555 112 route 0xff00;
#X obj 344 112 route absolute x 0;
#X obj 555 203 route 0;
#X obj 612 203 route 0;
#X text 499 280 break;
#X text 556 280 throttle;
#X obj 503 236 expr (($f1 / 255) * 127);
#X obj 670 236 expr (($f1 / 255) * 127);
#X floatatom 503 307 5 0 0 0 - - - 12;
#X obj 555 138 route 0x002a 0x002b;
#X floatatom 556 307 5 0 0 0 - - - 12;
#X obj 503 359 s ctrl-break;
#X obj 415 359 s ctrl-wheel;
#X obj 587 359 s ctrl-throttle;
#X obj 275 12 r ctrl-wheel;
#X obj 275 43 r ctrl-break;
#X obj 275 77 r ctrl-throttle;
#X obj 825 72 route button;
#X obj 825 98 route button_1 button_2 button_3 button_4 button_5 button_6 button_7 button_8 button_9 button_10 button_13;
#X obj 825 160 route 0;
#X obj 887 160 route 0;
#X obj 949 160 route 0;
#X obj 1011 160 route 0;
#X obj 1073 160 route 0;
#X obj 1135 160 route 0;
#X obj 1197 160 route 0;
#X obj 1259 160 route 0;
#X obj 1321 160 route 0;
#X obj 1383 160 route 0;
#X obj 1445 160 route 0;
#X obj 825 186 tgl 25 0 empty empty empty 17 7 0 10 #191919 #ffffff #ffffff 0 1;
#X obj 887 186 tgl 25 0 empty empty empty 17 7 0 10 #191919 #ffffff #ffffff 0 1;
#X obj 949 186 tgl 25 0 empty empty empty 17 7 0 10 #191919 #ffffff #ffffff 0 1;
#X obj 1011 186 tgl 25 0 empty empty empty 17 7 0 10 #191919 #ffffff #ffffff 0 1;
#X obj 1073 186 tgl 25 0 empty empty empty 17 7 0 10 #191919 #ffffff #ffffff 0 1;
#X obj 1135 186 tgl 25 0 empty empty empty 17 7 0 10 #191919 #ffffff #ffffff 0 1;
#X obj 1197 186 tgl 25 0 empty empty empty 17 7 0 10 #191919 #ffffff #ffffff 0 1;
#X obj 1259 186 tgl 25 0 empty empty empty 17 7 0 10 #191919 #ffffff #ffffff 0 1;
#X obj 1321 186 tgl 25 0 empty empty empty 17 7 0 10 #191919 #ffffff #ffffff 0 1;
#X obj 1383 186 tgl 25 0 empty empty empty 17 7 0 10 #191919 #ffffff #ffffff 0 1;
#X obj 1445 186 tgl 25 0 empty empty empty 17 7 0 10 #191919 #ffffff #ffffff 0 1;
#X obj 1135 252 s ctrl-paddle-r;
#X obj 825 218 s ctrl-s;
#X obj 887 221 s ctrl-x;
#X obj 949 221 s ctrl-o;
#X obj 1011 218 s ctrl-t;
#X obj 1073 218 s ctrl-paddle-l;
#X obj 1197 218 s ctrl-l2;
#X obj 1259 218 s ctrl-r2;
#X obj 1321 218 s ctrl-se;
#X obj 1383 218 s ctrl-st;
#X obj -15 -111 r ctrl-s;
#X obj 45 -111 r ctrl-x;
#X obj 107 -111 r ctrl-o;
#X obj 171 -111 r ctrl-t;
#X obj 242 -111 r ctrl-paddle-l;
#X obj 344 -111 r ctrl-paddle-r;
#X obj -15 -69 r ctrl-l2;
#X obj 47 -69 r ctrl-r2;
#X obj 109 -69 r ctrl-se;
#X obj 171 -69 r ctrl-st;
#X obj 231 456 r master-on;
#X connect 0 0 35 0;
#X connect 0 0 36 0;
#X connect 0 0 52 0;
#X connect 1 0 6 0;
#X connect 3 0 6 0;
#X connect 4 0 7 0;
#X connect 7 0 8 0;
#X connect 7 1 9 0;
#X connect 8 0 6 0;
#X connect 9 0 6 0;
#X connect 10 0 0 0;
#X connect 11 0 3 0;
#X connect 31 0 32 0;
#X connect 32 0 34 0;
#X connect 33 0 47 0;
#X connect 34 0 33 0;
#X connect 35 0 44 0;
#X connect 36 0 31 0;
#X connect 37 0 41 0;
#X connect 38 0 42 0;
#X connect 41 0 43 0;
#X connect 42 0 45 0;
#X connect 43 0 46 0;
#X connect 44 0 37 0;
#X connect 44 1 38 0;
#X connect 45 0 48 0;
#X connect 49 0 14 0;
#X connect 50 0 13 0;
#X connect 51 0 12 0;
#X connect 52 0 53 0;
#X connect 53 0 54 0;
#X connect 53 1 55 0;
#X connect 53 2 56 0;
#X connect 53 3 57 0;
#X connect 53 4 58 0;
#X connect 53 5 59 0;
#X connect 53 6 60 0;
#X connect 53 7 61 0;
#X connect 53 8 62 0;
#X connect 53 9 63 0;
#X connect 53 10 64 0;
#X connect 54 0 65 0;
#X connect 55 0 66 0;
#X connect 56 0 67 0;
#X connect 57 0 68 0;
#X connect 58 0 69 0;
#X connect 59 0 70 0;
#X connect 60 0 71 0;
#X connect 61 0 72 0;
#X connect 62 0 73 0;
#X connect 63 0 74 0;
#X connect 64 0 75 0;
#X connect 65 0 77 0;
#X connect 66 0 78 0;
#X connect 67 0 79 0;
#X connect 68 0 80 0;
#X connect 69 0 81 0;
#X connect 70 0 76 0;
#X connect 71 0 82 0;
#X connect 72 0 83 0;
#X connect 73 0 84 0;
#X connect 74 0 85 0;
#X connect 86 0 25 0;
#X connect 87 0 26 0;
#X connect 88 0 27 0;
#X connect 89 0 28 0;
#X connect 90 0 16 0;
#X connect 91 0 15 0;
#X connect 92 0 21 0;
#X connect 93 0 22 0;
#X connect 94 0 23 0;
#X connect 95 0 24 0;
#X connect 96 0 6 0;
#X coords 0 0 1 1 223 257 1 0 2;
