#N canvas 827 239 527 327 12;
#N canvas 0 50 450 300 clock-out 1;
#X obj 508 360 metro;
#X obj 508 386 bng 25 250 50 0 empty empty empty 17 7 0 10 #191919 #ffffff #ffffff;
#X floatatom 580 289 5 0 0 0 - - - 12;
#X obj 508 184 tgl 25 0 empty empty empty 17 7 0 10 #191919 #ffffff #ffffff 0 1;
#X floatatom 580 239 5 0 0 0 - - - 12;
#X obj 529 507 midiout;
#X text 529 533 midi clock out;
#X obj 580 154 inlet;
#X obj 508 154 inlet;
#X obj 437 508 outlet;
#X obj 792 239 outlet;
#X obj 529 465 f 248;
#X obj 580 321 ramp-bpm;
#X obj 815 75 inlet;
#X obj 738 75 inlet;
#X text 738 40 min;
#X text 815 40 max;
#X text 580 127 bpm in;
#X text 490 127 toggle in;
#X obj 580 264 expr (1000/($f1 / 60));
#X obj 1036 95 r bpm-init;
#X obj 1036 121 int 40;
#X obj 580 197 scaler;
#X connect 0 0 1 0;
#X connect 1 0 11 0;
#X connect 1 0 9 0;
#X connect 2 0 12 0;
#X connect 3 0 0 0;
#X connect 4 0 10 0;
#X connect 4 0 19 0;
#X connect 7 0 22 0;
#X connect 8 0 3 0;
#X connect 11 0 5 0;
#X connect 12 0 0 1;
#X connect 13 0 22 2;
#X connect 14 0 22 1;
#X connect 19 0 2 0;
#X connect 20 0 21 0;
#X connect 22 0 4 0;
#X restore 301 155 pd clock-out;
#X obj 340 48 r ctrl-throttle;
#X obj 5 84 bng 50 250 50 0 empty empty empty 17 7 0 10 #191919 #ffffff #ffffff;
#X obj 301 21 r master-on;
#X floatatom 374 190 4 0 0 0 - - - 16;
#X obj 374 338 abl_link~;
#X msg 246 297 connect \$1;
#X obj 246 265 r master-on;
#X msg 374 299 tempo \$1;
#X floatatom 5 48 4 0 0 0 - - - 24;
#X text 70 47 BPM;
#X text 60 83 Clock;
#X obj 405 231 s master-bpm;
#X obj 170 231 s master-clock;
#X obj 380 73 r min-bpm;
#X obj 419 99 r max-bpm;
#X floatatom 189 116 5 0 0 0 min\ bpm - min-bpm 12;
#X obj 656 48 r bpm-init;
#X obj 656 186 s min-bpm;
#X obj 751 152 s max-bpm;
#X floatatom 189 90 5 0 0 0 max\ bpm - max-bpm 12;
#X obj 201 59 bng 25 250 50 0 bpm-init empty empty 17 7 0 10 #000000 #ffffff #ffffff;
#X text 151 65 init;
#X obj 996 48 loadbang;
#X obj 996 74 s bpm-init;
#X obj 201 21 tgl 25 0 empty empty empty 17 7 0 10 #000000 #ffffff #ffffff 0 1;
#X obj 656 100 int 40;
#X obj 751 100 int 100;
#X connect 0 0 2 0;
#X connect 0 0 13 0;
#X connect 0 1 4 0;
#X connect 0 1 9 0;
#X connect 1 0 0 1;
#X connect 3 0 0 0;
#X connect 3 0 25 0;
#X connect 4 0 8 0;
#X connect 4 0 12 0;
#X connect 6 0 5 0;
#X connect 7 0 6 0;
#X connect 8 0 5 0;
#X connect 14 0 0 2;
#X connect 15 0 0 3;
#X connect 17 0 26 0;
#X connect 17 0 27 0;
#X connect 23 0 24 0;
#X connect 25 0 0 0;
#X connect 26 0 18 0;
#X connect 27 0 19 0;
#X coords 0 0 1 1 235 142 1 0 0;
