#N canvas 827 239 527 327 12;
#N canvas 0 50 450 300 clock-out 0;
#X obj 533 324 metro;
#X obj 533 350 bng 25 250 50 0 empty empty empty 17 7 0 10 #191919 #ffffff #ffffff;
#X floatatom 580 289 5 0 0 0 - - - 12;
#X obj 508 184 tgl 25 0 empty empty empty 17 7 0 10 #191919 #ffffff #ffffff 0 1;
#X floatatom 580 239 5 0 0 0 - - - 12;
#X obj 580 264 expr (1000/($f1 / 60));
#X obj 554 471 midiout;
#X text 603 394 midi clock out;
#X obj 580 154 inlet;
#X obj 508 154 inlet;
#X obj 462 472 outlet;
#X obj 792 239 outlet;
#X obj 554 429 f 248;
#X obj 580 209 expr ((($f1 / 127) * 60) + 100);
#X text 563 104 pedal controls bpm 100-160;
#X obj 462 429 ramp-bpm;
#X connect 0 0 1 0;
#X connect 1 0 12 0;
#X connect 1 0 15 0;
#X connect 2 0 0 1;
#X connect 3 0 0 0;
#X connect 4 0 5 0;
#X connect 4 0 11 0;
#X connect 5 0 2 0;
#X connect 8 0 13 0;
#X connect 9 0 3 0;
#X connect 12 0 6 0;
#X connect 13 0 4 0;
#X connect 15 0 10 0;
#X restore 301 84 pd clock-out;
#X obj 362 48 r ctrl-throttle;
#X obj 5 84 bng 50 250 50 0 empty empty empty 17 7 0 10 #191919 #ffffff #ffffff;
#X obj 301 21 r master-on;
#X floatatom 374 119 4 0 0 0 - - - 16;
#X obj 374 338 abl_link~;
#X msg 248 222 connect \$1;
#X obj 248 190 r master-on;
#X msg 374 299 tempo \$1;
#X obj 411 197 s master-clock;
#X floatatom 5 48 4 0 0 0 - - - 24;
#X text 70 47 BPM;
#X text 60 83 Clock;
#X connect 0 0 2 0;
#X connect 0 1 4 0;
#X connect 0 1 10 0;
#X connect 1 0 0 1;
#X connect 3 0 0 0;
#X connect 4 0 8 0;
#X connect 4 0 9 0;
#X connect 6 0 5 0;
#X connect 7 0 6 0;
#X connect 8 0 5 0;
#X coords 0 0 1 1 124 142 1 0 0;
